<?xml version="1.0" encoding="utf-8"?>
<!-- Generator: Adobe Illustrator 16.0.3, SVG Export Plug-In . SVG Version: 6.00 Build 0)  -->
<!DOCTYPE svg PUBLIC "-//W3C//DTD SVG 1.1//EN" "http://www.w3.org/Graphics/SVG/1.1/DTD/svg11.dtd">
<svg version="1.1" id="Layer_1" xmlns="http://www.w3.org/2000/svg" xmlns:xlink="http://www.w3.org/1999/xlink" x="0px" y="0px"
	 width="102px" height="26px" viewBox="0 0 102 26" enable-background="new 0 0 102 26" xml:space="preserve">
<g>
	<path fill="#999999" d="M14.11,16.911l-2.109-7.874h1.079l1.208,5.161c0.13,0.541,0.242,1.077,0.336,1.61
		c0.203-0.842,0.322-1.326,0.356-1.455l1.514-5.316h1.269l1.138,3.985c0.285,0.988,0.49,1.917,0.618,2.787
		c0.101-0.496,0.231-1.066,0.396-1.713l1.246-5.06h1.058L20.04,16.91h-1.013l-1.675-6c-0.142-0.501-0.226-0.809-0.249-0.924
		c-0.084,0.362-0.16,0.67-0.233,0.924l-1.686,6L14.11,16.911L14.11,16.911z"/>
	<path fill="#999999" d="M23.075,16.911V9.037h0.977v2.825c0.455-0.522,1.03-0.784,1.724-0.784c0.426,0,0.796,0.083,1.111,0.25
		c0.314,0.166,0.538,0.396,0.675,0.69c0.135,0.293,0.202,0.719,0.202,1.277v3.615h-0.976v-3.615c0-0.482-0.104-0.835-0.316-1.055
		c-0.211-0.221-0.51-0.33-0.897-0.33c-0.288,0-0.561,0.074-0.816,0.223c-0.254,0.148-0.436,0.35-0.544,0.604
		c-0.108,0.255-0.162,0.605-0.162,1.053v3.121H23.075z"/>
	<path fill="#999999" d="M33.006,16.208c-0.361,0.304-0.71,0.519-1.044,0.646c-0.334,0.125-0.693,0.188-1.075,0.188
		c-0.632,0-1.118-0.151-1.457-0.459c-0.341-0.308-0.51-0.697-0.51-1.174c0-0.279,0.063-0.534,0.191-0.767
		c0.129-0.229,0.297-0.416,0.505-0.557c0.206-0.141,0.441-0.245,0.701-0.316c0.19-0.051,0.48-0.099,0.867-0.146
		c0.787-0.093,1.367-0.204,1.739-0.333c0.004-0.133,0.006-0.217,0.006-0.253c0-0.394-0.092-0.671-0.276-0.832
		c-0.249-0.219-0.619-0.328-1.111-0.328c-0.459,0-0.798,0.08-1.016,0.239c-0.22,0.159-0.381,0.441-0.485,0.847l-0.954-0.129
		c0.087-0.405,0.23-0.731,0.43-0.98c0.197-0.249,0.485-0.44,0.861-0.575c0.377-0.134,0.812-0.201,1.307-0.201
		c0.49,0,0.892,0.058,1.198,0.172c0.308,0.114,0.532,0.259,0.678,0.433c0.145,0.174,0.246,0.393,0.305,0.658
		c0.031,0.164,0.048,0.461,0.048,0.891v1.289c0,0.899,0.021,1.47,0.063,1.707s0.123,0.465,0.246,0.686h-1.02
		C33.099,16.711,33.034,16.477,33.006,16.208z M32.924,14.048c-0.354,0.144-0.885,0.267-1.593,0.365
		c-0.401,0.058-0.686,0.122-0.851,0.192c-0.167,0.071-0.295,0.178-0.386,0.313c-0.09,0.14-0.136,0.291-0.136,0.459
		c0,0.258,0.099,0.474,0.296,0.646c0.195,0.172,0.484,0.259,0.864,0.259c0.375,0,0.709-0.081,1.002-0.244
		c0.292-0.163,0.508-0.386,0.646-0.668c0.104-0.22,0.156-0.541,0.156-0.968L32.924,14.048L32.924,14.048z"/>
	<path fill="#999999" d="M37.553,16.046l0.142,0.854c-0.273,0.058-0.521,0.086-0.736,0.086c-0.354,0-0.629-0.057-0.823-0.168
		c-0.195-0.109-0.332-0.256-0.412-0.438c-0.079-0.181-0.119-0.562-0.119-1.141v-3.282h-0.716v-0.752h0.716V9.794l0.971-0.58v1.993
		h0.98v0.752h-0.98v3.335c0,0.276,0.017,0.453,0.052,0.532c0.034,0.078,0.091,0.142,0.167,0.188c0.078,0.047,0.19,0.069,0.334,0.069
		C37.233,16.084,37.377,16.07,37.553,16.046z"/>
	<path fill="#999999" d="M41.596,10.149V9.037h0.977v1.112H41.596z M41.596,16.911v-5.704h0.977v5.704H41.596z"/>
	<path fill="#999999" d="M43.667,15.208l0.965-0.149c0.054,0.383,0.204,0.678,0.452,0.881c0.248,0.205,0.594,0.308,1.038,0.308
		c0.447,0,0.78-0.093,0.997-0.271c0.217-0.18,0.324-0.394,0.324-0.638c0-0.218-0.096-0.39-0.287-0.516
		c-0.134-0.087-0.466-0.194-0.997-0.327c-0.716-0.18-1.211-0.334-1.487-0.467c-0.276-0.131-0.486-0.312-0.629-0.542
		c-0.144-0.231-0.215-0.486-0.215-0.766c0-0.254,0.06-0.489,0.177-0.706c0.116-0.217,0.276-0.396,0.48-0.54
		c0.151-0.111,0.358-0.205,0.62-0.282c0.262-0.077,0.542-0.115,0.843-0.115c0.451,0,0.849,0.064,1.19,0.193
		c0.341,0.129,0.593,0.304,0.756,0.523c0.162,0.221,0.274,0.515,0.336,0.884l-0.954,0.129c-0.044-0.294-0.169-0.522-0.376-0.688
		c-0.208-0.166-0.502-0.247-0.881-0.247c-0.448,0-0.769,0.073-0.959,0.22c-0.192,0.147-0.288,0.319-0.288,0.516
		c0,0.126,0.04,0.238,0.119,0.339c0.08,0.104,0.204,0.189,0.375,0.258c0.098,0.036,0.384,0.118,0.861,0.247
		c0.691,0.183,1.172,0.332,1.445,0.447c0.273,0.117,0.486,0.287,0.643,0.509c0.154,0.222,0.232,0.498,0.232,0.827
		c0,0.322-0.095,0.625-0.283,0.91c-0.19,0.285-0.465,0.504-0.822,0.66c-0.356,0.154-0.762,0.232-1.214,0.232
		c-0.748,0-1.318-0.154-1.709-0.462S43.775,15.813,43.667,15.208z"/>
	<path fill="#999999" d="M52.815,16.911V9.037h2.738c0.618,0,1.09,0.038,1.413,0.112c0.456,0.104,0.847,0.292,1.167,0.564
		c0.418,0.351,0.732,0.8,0.941,1.346c0.205,0.546,0.312,1.17,0.312,1.871c0,0.599-0.069,1.128-0.213,1.589
		c-0.14,0.463-0.321,0.846-0.541,1.146s-0.462,0.54-0.725,0.714c-0.263,0.175-0.577,0.308-0.948,0.396
		c-0.37,0.091-0.796,0.136-1.275,0.136H52.815z M53.868,15.98h1.697c0.524,0,0.935-0.047,1.233-0.146
		c0.298-0.097,0.535-0.231,0.712-0.408c0.25-0.245,0.443-0.577,0.583-0.995c0.14-0.416,0.209-0.924,0.209-1.519
		c0-0.823-0.138-1.456-0.409-1.898s-0.604-0.738-0.994-0.889c-0.281-0.107-0.735-0.162-1.361-0.162h-1.669L53.868,15.98
		L53.868,15.98z"/>
	<path fill="#999999" d="M60.715,10.149V9.037h0.976v1.112H60.715z M60.715,16.911v-5.704h0.976v5.704H60.715z"/>
	<path fill="#999999" d="M66.933,16.208c-0.361,0.304-0.709,0.519-1.043,0.646c-0.334,0.125-0.693,0.188-1.076,0.188
		c-0.631,0-1.119-0.151-1.457-0.459c-0.34-0.308-0.512-0.697-0.512-1.174c0-0.279,0.065-0.534,0.193-0.767
		c0.128-0.229,0.296-0.416,0.505-0.557c0.207-0.141,0.44-0.245,0.7-0.316c0.191-0.051,0.48-0.099,0.867-0.146
		c0.787-0.093,1.367-0.204,1.74-0.333c0.004-0.133,0.006-0.217,0.006-0.253c0-0.394-0.094-0.671-0.276-0.832
		c-0.249-0.219-0.62-0.328-1.111-0.328c-0.46,0-0.799,0.08-1.017,0.239c-0.219,0.159-0.381,0.441-0.485,0.847l-0.952-0.129
		c0.086-0.405,0.229-0.731,0.428-0.98s0.484-0.44,0.861-0.575c0.377-0.134,0.813-0.201,1.309-0.201c0.49,0,0.891,0.058,1.197,0.172
		c0.308,0.114,0.532,0.259,0.678,0.433c0.146,0.174,0.246,0.393,0.304,0.658c0.034,0.164,0.05,0.461,0.05,0.891v1.289
		c0,0.899,0.021,1.47,0.063,1.707c0.043,0.237,0.125,0.465,0.248,0.686h-1.021C67.024,16.711,66.961,16.477,66.933,16.208z
		 M66.851,14.048c-0.354,0.144-0.887,0.267-1.593,0.365c-0.401,0.058-0.687,0.122-0.853,0.192c-0.166,0.071-0.295,0.178-0.385,0.313
		c-0.092,0.136-0.138,0.291-0.138,0.459c0,0.258,0.101,0.474,0.298,0.646c0.195,0.172,0.482,0.259,0.863,0.259
		c0.375,0,0.709-0.081,1.002-0.244s0.508-0.386,0.646-0.668c0.104-0.22,0.156-0.541,0.156-0.968L66.851,14.048L66.851,14.048z"/>
	<path fill="#999999" d="M68.959,15.208l0.966-0.149c0.055,0.383,0.204,0.678,0.451,0.881c0.248,0.205,0.594,0.308,1.038,0.308
		c0.446,0,0.778-0.093,0.996-0.271c0.217-0.18,0.325-0.394,0.325-0.638c0-0.218-0.096-0.39-0.287-0.516
		c-0.135-0.087-0.467-0.194-0.998-0.327c-0.715-0.18-1.21-0.334-1.485-0.467c-0.278-0.131-0.487-0.312-0.629-0.542
		c-0.146-0.231-0.215-0.486-0.215-0.766c0-0.254,0.06-0.489,0.175-0.706c0.118-0.217,0.278-0.396,0.48-0.54
		c0.151-0.111,0.358-0.205,0.621-0.282c0.262-0.077,0.543-0.115,0.842-0.115c0.451,0,0.85,0.064,1.189,0.193
		c0.344,0.129,0.596,0.304,0.758,0.523c0.162,0.221,0.273,0.515,0.336,0.884l-0.953,0.129c-0.045-0.294-0.17-0.522-0.379-0.688
		c-0.207-0.166-0.5-0.247-0.879-0.247c-0.449,0-0.77,0.073-0.959,0.22c-0.191,0.147-0.289,0.319-0.289,0.516
		c0,0.126,0.041,0.238,0.121,0.339c0.078,0.104,0.203,0.189,0.373,0.258c0.099,0.036,0.387,0.118,0.861,0.247
		c0.691,0.183,1.171,0.332,1.443,0.447c0.273,0.117,0.488,0.287,0.644,0.509c0.156,0.222,0.233,0.498,0.233,0.827
		c0,0.322-0.096,0.625-0.285,0.91s-0.463,0.504-0.82,0.66c-0.357,0.154-0.763,0.232-1.214,0.232c-0.749,0-1.317-0.154-1.711-0.462
		C69.319,16.27,69.065,15.813,68.959,15.208z"/>
	<path fill="#999999" d="M74.897,19.098v-7.891h0.891v0.741c0.21-0.29,0.445-0.508,0.71-0.652c0.264-0.146,0.584-0.218,0.958-0.218
		c0.492,0,0.927,0.125,1.301,0.376c0.377,0.251,0.66,0.604,0.852,1.061c0.192,0.457,0.289,0.957,0.289,1.502
		c0,0.582-0.105,1.106-0.316,1.574c-0.212,0.469-0.52,0.825-0.922,1.074c-0.401,0.249-0.825,0.373-1.271,0.373
		c-0.324,0-0.617-0.066-0.876-0.204c-0.259-0.136-0.471-0.31-0.637-0.517v2.775h-0.978V19.098z M75.783,14.091
		c0,0.734,0.147,1.277,0.448,1.628c0.301,0.352,0.662,0.526,1.09,0.526c0.435,0,0.805-0.183,1.113-0.545
		c0.311-0.363,0.465-0.927,0.465-1.689c0-0.727-0.151-1.271-0.453-1.633c-0.301-0.362-0.661-0.543-1.082-0.543
		c-0.412,0-0.781,0.193-1.103,0.578C75.942,12.798,75.783,13.357,75.783,14.091z"/>
	<path fill="#999999" d="M80.709,14.061c0-1.058,0.297-1.838,0.89-2.349c0.495-0.423,1.1-0.634,1.813-0.634
		c0.79,0,1.438,0.257,1.939,0.771c0.502,0.514,0.754,1.224,0.754,2.129c0,0.733-0.11,1.313-0.334,1.731
		c-0.223,0.421-0.547,0.747-0.971,0.979s-0.889,0.351-1.39,0.351c-0.808,0-1.458-0.256-1.957-0.769
		C80.958,15.76,80.709,15.021,80.709,14.061z M81.712,14.061c0,0.729,0.161,1.276,0.482,1.642c0.322,0.362,0.728,0.545,1.216,0.545
		c0.483,0,0.887-0.185,1.208-0.548c0.32-0.365,0.482-0.924,0.482-1.672c0-0.706-0.16-1.238-0.483-1.604
		c-0.324-0.363-0.728-0.546-1.206-0.546c-0.489,0-0.895,0.182-1.215,0.543C81.873,12.782,81.712,13.329,81.712,14.061z"/>
	<path fill="#999999" d="M87.235,16.911v-5.704h0.879v0.864c0.224-0.404,0.431-0.671,0.619-0.8c0.189-0.129,0.399-0.193,0.625-0.193
		c0.33,0,0.664,0.104,1.004,0.312l-0.336,0.896c-0.237-0.139-0.478-0.209-0.715-0.209c-0.215,0-0.404,0.063-0.574,0.19
		s-0.291,0.304-0.362,0.529c-0.106,0.344-0.164,0.72-0.164,1.128v2.986L87.235,16.911L87.235,16.911z"/>
	<path fill="#999999" d="M94.699,16.208c-0.36,0.304-0.71,0.519-1.044,0.646c-0.334,0.125-0.693,0.188-1.074,0.188
		c-0.633,0-1.119-0.151-1.458-0.459s-0.511-0.697-0.511-1.174c0-0.279,0.063-0.534,0.191-0.767c0.129-0.229,0.297-0.416,0.506-0.557
		c0.207-0.141,0.441-0.245,0.7-0.316c0.19-0.051,0.481-0.099,0.867-0.146c0.788-0.093,1.367-0.204,1.74-0.333
		c0.004-0.133,0.006-0.217,0.006-0.253c0-0.394-0.093-0.671-0.276-0.832c-0.248-0.219-0.617-0.328-1.111-0.328
		c-0.457,0-0.797,0.08-1.017,0.239c-0.22,0.159-0.381,0.441-0.483,0.847l-0.953-0.129c0.087-0.405,0.229-0.731,0.428-0.98
		s0.484-0.44,0.861-0.575c0.377-0.134,0.813-0.201,1.307-0.201c0.491,0,0.893,0.058,1.198,0.172
		c0.308,0.114,0.532,0.259,0.679,0.433c0.145,0.174,0.244,0.393,0.305,0.658c0.03,0.164,0.047,0.461,0.047,0.891v1.289
		c0,0.899,0.021,1.47,0.064,1.707c0.041,0.237,0.124,0.465,0.246,0.686h-1.021C94.794,16.711,94.729,16.477,94.699,16.208z
		 M94.618,14.048c-0.354,0.144-0.885,0.267-1.596,0.365c-0.398,0.058-0.684,0.122-0.85,0.192c-0.167,0.071-0.296,0.178-0.386,0.313
		c-0.091,0.14-0.136,0.291-0.136,0.459c0,0.258,0.1,0.474,0.295,0.646c0.197,0.172,0.484,0.259,0.865,0.259
		c0.377,0,0.709-0.081,1.002-0.244s0.508-0.386,0.646-0.668c0.104-0.22,0.158-0.541,0.158-0.968L94.618,14.048L94.618,14.048z"/>
	<path fill="#999999" d="M98.944,14.973c-0.004-0.13-0.006-0.226-0.006-0.289c0-0.381,0.056-0.709,0.162-0.982
		c0.078-0.208,0.207-0.417,0.385-0.628c0.131-0.154,0.363-0.379,0.701-0.675c0.338-0.295,0.56-0.53,0.657-0.706
		c0.103-0.176,0.151-0.367,0.151-0.574c0-0.377-0.146-0.707-0.442-0.991c-0.297-0.285-0.659-0.427-1.09-0.427
		c-0.416,0-0.764,0.129-1.041,0.387c-0.276,0.258-0.461,0.66-0.548,1.208l-1.002-0.118c0.091-0.734,0.357-1.296,0.806-1.687
		c0.446-0.391,1.035-0.585,1.771-0.585c0.776,0,1.396,0.209,1.858,0.628c0.461,0.419,0.692,0.926,0.692,1.521
		c0,0.344-0.08,0.66-0.244,0.95c-0.161,0.29-0.479,0.643-0.954,1.058c-0.316,0.279-0.525,0.485-0.621,0.62
		c-0.098,0.133-0.17,0.282-0.217,0.454c-0.049,0.173-0.074,0.451-0.081,0.839h-0.938V14.973z M98.885,16.911v-1.101h1.11v1.102
		L98.885,16.911L98.885,16.911z"/>
</g>
</svg>
