<?xml version="1.0" encoding="utf-8"?>
<!-- Generator: Adobe Illustrator 16.0.3, SVG Export Plug-In . SVG Version: 6.00 Build 0)  -->
<!DOCTYPE svg PUBLIC "-//W3C//DTD SVG 1.1//EN" "http://www.w3.org/Graphics/SVG/1.1/DTD/svg11.dtd">
<svg version="1.1" id="Layer_1" xmlns="http://www.w3.org/2000/svg" xmlns:xlink="http://www.w3.org/1999/xlink" x="0px" y="0px"
	 width="198px" height="26px" viewBox="0 0 198 26" enable-background="new 0 0 198 26" xml:space="preserve">
<path fill="#F05A28" d="M194.995,0H3.005C1.346,0,0,1.343,0,3v20c0,1.656,1.346,3,3.005,3h191.99c1.659,0,3.005-1.344,3.005-3V3
	C198,1.343,196.654,0,194.995,0z"/>
<g>
	<path fill="#FFFFFF" d="M61.246,14.742v0.295c0,0.938,0.267,1.541,1.331,1.541c0.615,0,1.205-0.393,1.205-1.232
		c0-0.91-0.464-1.248-1.794-1.71c-1.793-0.616-2.619-1.358-2.619-3.025c0-1.947,1.189-2.941,3.096-2.941
		c1.793,0,3.096,0.77,3.096,2.689v0.28h-1.933c0-0.938-0.322-1.485-1.094-1.485c-0.91,0-1.148,0.575-1.148,1.163
		c0,0.617,0.183,0.995,1.037,1.359l1.555,0.673c1.514,0.658,1.905,1.428,1.905,2.646c0,2.114-1.289,3.067-3.474,3.067
		c-2.283,0-3.181-1.063-3.181-2.914v-0.405L61.246,14.742L61.246,14.742z"/>
	<path fill="#FFFFFF" d="M66.69,7.865h1.934v3.236h0.027c0.364-0.645,1.022-0.967,1.835-0.967c1.205,0,1.919,0.659,1.919,2.144
		v5.589h-1.933V12.67c0-0.757-0.252-1.051-0.826-1.051c-0.659,0-1.022,0.407-1.022,1.247v5.001H66.69V7.865z"/>
	<path fill="#FFFFFF" d="M73.537,12.642v-0.183c0-1.737,1.189-2.325,2.646-2.325c2.297,0,2.731,0.953,2.731,2.312v3.964
		c0,0.699,0.042,1.021,0.237,1.457h-1.849c-0.127-0.238-0.183-0.532-0.238-0.784h-0.027c-0.448,0.784-0.995,0.979-1.919,0.979
		c-1.346,0-1.821-1.147-1.821-2.156c0-1.415,0.574-1.989,1.905-2.354l1.092-0.294c0.575-0.154,0.771-0.379,0.771-0.883
		c0-0.574-0.252-0.924-0.896-0.924c-0.589,0-0.896,0.392-0.896,0.981v0.21H73.537z M77.066,14.098
		c-0.267,0.197-0.589,0.322-0.825,0.379c-0.785,0.168-1.095,0.547-1.095,1.219c0,0.574,0.211,1.052,0.729,1.052
		s1.19-0.337,1.19-1.163V14.098z"/>
	<path fill="#FFFFFF" d="M80.146,10.33h1.849v1.009h0.028c0.393-0.729,0.938-1.205,1.736-1.205c0.112,0,0.238,0.014,0.35,0.028v1.85
		c-0.194-0.015-0.405-0.029-0.602-0.029c-0.672,0-1.429,0.35-1.429,1.359v4.524h-1.934L80.146,10.33L80.146,10.33z"/>
	<path fill="#FFFFFF" d="M86.318,14.393v0.603c0,0.883,0.238,1.752,0.953,1.752c0.646,0,0.91-0.49,1.022-1.415h1.736
		c-0.069,1.751-0.91,2.73-2.731,2.73c-2.801,0-2.913-2.156-2.913-4.033c0-2.017,0.392-3.896,2.997-3.896
		c2.256,0,2.76,1.513,2.76,3.824v0.435H86.318z M88.295,13.244c-0.042-1.148-0.184-1.793-0.98-1.793
		c-0.771,0-0.995,0.798-0.995,1.499v0.295L88.295,13.244L88.295,13.244z"/>
	<path fill="#FFFFFF" d="M96.945,10.134c2.325-0.042,2.971,1.345,2.971,3.964c0,2.578-0.757,3.965-2.971,3.965
		c-2.324,0.043-2.97-1.345-2.97-3.965C93.977,11.521,94.732,10.134,96.945,10.134z M96.945,16.746c0.784,0,1.037-0.771,1.037-2.648
		c0-1.876-0.253-2.646-1.037-2.646c-0.952,0-1.036,1.106-1.036,2.646C95.909,15.639,95.993,16.746,96.945,16.746z"/>
	<path fill="#FFFFFF" d="M100.81,10.33h1.849v0.882h0.028c0.406-0.742,1.105-1.079,1.918-1.079c1.205,0,1.92,0.659,1.92,2.144v5.589
		h-1.934V12.67c0-0.757-0.252-1.051-0.826-1.051c-0.658,0-1.021,0.407-1.021,1.247v5.001h-1.934V10.33z"/>
	<path fill="#FFFFFF" d="M111.043,7.865h3.306c2.801,0,3.307,1.919,3.307,4.861c0,3.543-0.758,5.141-3.432,5.141h-3.181V7.865z
		 M113.06,16.381h0.896c1.4,0,1.682-0.882,1.682-3.6c0-2.269-0.183-3.432-1.724-3.432h-0.854V16.381L113.06,16.381z"/>
	<path fill="#FFFFFF" d="M118.854,7.753h1.934v1.653h-1.934V7.753z M118.854,10.33h1.934v7.536h-1.934V10.33z"/>
	<path fill="#FFFFFF" d="M121.989,12.642v-0.183c0-1.737,1.191-2.325,2.648-2.325c2.297,0,2.73,0.953,2.73,2.312v3.964
		c0,0.699,0.042,1.021,0.238,1.457h-1.85c-0.126-0.238-0.183-0.532-0.238-0.784h-0.027c-0.448,0.784-0.994,0.979-1.92,0.979
		c-1.344,0-1.819-1.147-1.819-2.156c0-1.415,0.574-1.989,1.903-2.354l1.094-0.294c0.574-0.154,0.771-0.379,0.771-0.883
		c0-0.574-0.252-0.924-0.896-0.924c-0.588,0-0.896,0.392-0.896,0.981v0.21H121.989z M125.521,14.098
		c-0.266,0.197-0.588,0.322-0.826,0.379c-0.783,0.168-1.092,0.547-1.092,1.219c0,0.574,0.209,1.052,0.729,1.052
		s1.189-0.337,1.189-1.163V14.098z"/>
	<path fill="#FFFFFF" d="M130.015,15.4v0.252c0,0.658,0.35,1.094,1.008,1.094c0.588,0,0.979-0.295,0.979-0.896
		c0-0.49-0.321-0.715-0.7-0.854l-1.357-0.49c-1.064-0.378-1.611-1.036-1.611-2.101c0-1.247,0.785-2.27,2.773-2.27
		c1.75,0,2.578,0.785,2.578,2.144v0.309h-1.738c0-0.757-0.225-1.135-0.854-1.135c-0.49,0-0.91,0.28-0.91,0.813
		c0,0.363,0.195,0.672,0.84,0.882l1.164,0.393c1.219,0.405,1.666,1.022,1.666,2.157c0,1.582-1.177,2.367-2.802,2.367
		c-2.171,0-2.772-0.953-2.772-2.396V15.4H130.015z"/>
	<path fill="#FFFFFF" d="M134.674,10.33h1.849v0.798h0.028c0.421-0.7,0.952-0.995,1.709-0.995c1.583,0,2.312,1.163,2.312,3.965
		c0,2.803-0.729,3.965-2.312,3.965c-0.729,0-1.219-0.295-1.625-0.896h-0.028v3.165h-1.933V10.33z M137.629,16.578
		c0.841,0,1.009-0.842,1.009-2.48s-0.168-2.479-1.009-2.479c-0.854,0-1.022,0.84-1.022,2.479S136.774,16.578,137.629,16.578z"/>
	<path fill="#FFFFFF" d="M144.251,10.134c2.326-0.042,2.971,1.345,2.971,3.964c0,2.578-0.757,3.965-2.971,3.965
		c-2.325,0.043-2.969-1.345-2.969-3.965C141.282,11.521,142.038,10.134,144.251,10.134z M144.251,16.746
		c0.785,0,1.037-0.771,1.037-2.648c0-1.876-0.252-2.646-1.037-2.646c-0.952,0-1.036,1.106-1.036,2.646
		C143.215,15.639,143.299,16.746,144.251,16.746z"/>
	<path fill="#FFFFFF" d="M148.114,10.33h1.849v1.009h0.028c0.393-0.729,0.938-1.205,1.736-1.205c0.111,0,0.237,0.014,0.351,0.028
		v1.85c-0.196-0.015-0.406-0.029-0.603-0.029c-0.673,0-1.43,0.35-1.43,1.359v4.524h-1.934V10.33H148.114z"/>
	<path fill="#FFFFFF" d="M152.621,12.642v-0.183c0-1.737,1.19-2.325,2.647-2.325c2.297,0,2.73,0.953,2.73,2.312v3.964
		c0,0.699,0.042,1.021,0.238,1.457h-1.85c-0.125-0.238-0.183-0.532-0.238-0.784h-0.027c-0.448,0.784-0.994,0.979-1.919,0.979
		c-1.345,0-1.82-1.147-1.82-2.156c0-1.415,0.574-1.989,1.904-2.354l1.093-0.294c0.574-0.154,0.771-0.379,0.771-0.883
		c0-0.574-0.252-0.924-0.896-0.924c-0.588,0-0.896,0.392-0.896,0.981v0.21H152.621z M156.151,14.098
		c-0.267,0.197-0.588,0.322-0.826,0.379c-0.784,0.168-1.094,0.547-1.094,1.219c0,0.574,0.211,1.052,0.729,1.052
		s1.19-0.337,1.19-1.163V14.098z"/>
</g>
<path fill="#FFFFFF" d="M47.813,16.221c-1.098,1.54-2.155,3.023-3.231,4.536c-0.94-0.698-1.849-1.372-2.795-2.075
	c1.076-1.515,2.136-3.007,3.226-4.537c-1.774-0.59-3.49-1.16-5.25-1.744c0.354-1.114,0.701-2.2,1.059-3.326
	c1.756,0.578,3.471,1.144,5.245,1.729c0-1.876,0-3.705,0-5.561c1.178,0,2.305,0,3.482,0c0,1.839,0,3.672,0,5.564
	c1.778-0.586,3.493-1.151,5.256-1.733c0.355,1.129,0.701,2.229,1.062,3.375c-1.761,0.568-3.479,1.123-5.25,1.695
	c1.083,1.522,2.139,3.008,3.226,4.537c-0.928,0.688-1.844,1.368-2.795,2.075C49.97,19.244,48.914,17.762,47.813,16.221z"/>
</svg>
