<?xml version="1.0" encoding="utf-8"?>
<!-- Generator: Adobe Illustrator 16.0.3, SVG Export Plug-In . SVG Version: 6.00 Build 0)  -->
<!DOCTYPE svg PUBLIC "-//W3C//DTD SVG 1.1//EN" "http://www.w3.org/Graphics/SVG/1.1/DTD/svg11.dtd">
<svg version="1.1" id="Layer_1" xmlns="http://www.w3.org/2000/svg" xmlns:xlink="http://www.w3.org/1999/xlink" x="0px" y="0px"
	 width="96px" height="26px" viewBox="0 0 96 26" enable-background="new 0 0 96 26" xml:space="preserve">
<g id="Layer_1_copy">
	<path fill="#2CABE1" d="M96,23c0,1.656-1.346,3-3.005,3H3.005C1.346,26,0,24.656,0,23V3c0-1.657,1.346-3,3.005-3h89.99
		C94.654,0,96,1.343,96,3V23z"/>
</g>
<g id="Email">
	<g>
		<path fill="#FFFFFF" d="M36.83,7.999v1.653h-3.572v2.354h3.362v1.652h-3.362v2.689h3.713V18h-5.729V7.999H36.83z"/>
		<path fill="#FFFFFF" d="M37.877,7.999h2.998l1.429,7.062h0.027l1.443-7.062h2.983v10.002h-1.849v-7.984H44.88l-1.779,7.984h-1.568
			l-1.779-7.984h-0.028v7.984h-1.849V7.999z"/>
		<path fill="#FFFFFF" d="M50.001,7.999h2.494l2.647,10.002H53.04l-0.462-2.115h-2.662l-0.462,2.115h-2.101L50.001,7.999z
			 M50.268,14.232h1.961l-0.967-4.497h-0.027L50.268,14.232z"/>
		<path fill="#FFFFFF" d="M55.797,18.001V7.999h2.018v10.002H55.797z"/>
		<path fill="#FFFFFF" d="M59.17,18.001V7.999h2.018v8.349h3.571v1.653H59.17z"/>
	</g>
</g>
</svg>
