<?xml version="1.0" encoding="utf-8"?>
<!-- Generator: Adobe Illustrator 16.0.3, SVG Export Plug-In . SVG Version: 6.00 Build 0)  -->
<!DOCTYPE svg PUBLIC "-//W3C//DTD SVG 1.1//EN" "http://www.w3.org/Graphics/SVG/1.1/DTD/svg11.dtd">
<svg version="1.1" id="Layer_1" xmlns="http://www.w3.org/2000/svg" xmlns:xlink="http://www.w3.org/1999/xlink" x="0px" y="0px"
	 width="44px" height="44px" viewBox="0 0 44 44" enable-background="new 0 0 44 44" xml:space="preserve">
<path fill-rule="evenodd" clip-rule="evenodd" fill="#493728" d="M32.053,12.278h3.498v1.334l-4.126-0.018
	C30.873,13.149,31.14,12.227,32.053,12.278"/>
<path fill="#493728" d="M28.601,33.33l0.009,0.007c0.225-0.513,1.337-1.851,1.902-1.524c-0.333,0.163-0.624,0.42-0.879,0.755
	c-0.229,0.301-0.43,0.666-0.606,1.086c0.68,0.529,1.585,1.2,2.016,2.528c-0.924-0.943-1.833-1.761-2.724-2.409
	c-0.878-0.639-1.733-1.111-2.561-1.377C26.25,32.064,27.965,32.867,28.601,33.33"/>
<path fill="#493728" d="M27.997,4.371c0.696-0.612,1.308-1.063,1.816-1.286c0.403-0.177,0.719-0.202,0.936-0.032
	c0.283,0.221,0.438,0.771,0.323,1.55c-0.104,0.713-0.436,1.584-1.096,2.549l0.712,0.488c0.744-1.086,1.12-2.086,1.241-2.914
	c0.162-1.112-0.137-1.957-0.647-2.355c-0.501-0.392-1.108-0.389-1.815-0.078c-0.599,0.264-1.28,0.763-2.041,1.43L27.997,4.371z"/>
<path fill-rule="evenodd" clip-rule="evenodd" fill="#C08A56" d="M30.19,5.959c-0.34-0.729-0.86-1.367-1.514-1.91
	c-0.049-0.041-0.1-0.082-0.152-0.123c0.481-0.387,0.914-0.677,1.289-0.842c0.403-0.177,0.719-0.202,0.936-0.032
	c0.283,0.221,0.438,0.771,0.323,1.55c-0.077,0.533-0.282,1.155-0.657,1.838C30.342,6.274,30.268,6.113,30.19,5.959"/>
<path d="M25.087,14.99c4.519-0.189,9.1,0.733,11.514,3.231c0.313,1.544,0.31,2.881,0.023,4.031
	c-0.286,1.158-0.862,2.134-1.685,2.948c-1.8,1.782-3.601,0.96-5.639,0.027c-0.6-0.272-1.217-0.555-1.867-0.791l-0.211-0.003
	l-1.286,0.427c-4.094,1.363-6.051,2.016-7.312,1.445l-0.034-0.015c-1.561-0.706-5.731-2.589-4.582-7.864
	C16.14,16.479,20.57,15.181,25.087,14.99 M37.137,17.844l-0.009-0.01l-0.001-0.002c-2.542-2.69-7.35-3.687-12.067-3.488
	c-4.703,0.198-9.343,1.588-11.56,3.674h0l-0.01,0.008l-0.093,0.164c-1.339,5.865,3.227,7.926,4.929,8.693l0.034,0.016
	c1.493,0.672,3.527-0.005,7.784-1.421l1.179-0.392c0.589,0.22,1.157,0.479,1.712,0.733c2.253,1.028,4.245,1.939,6.362-0.157
	c0.908-0.9,1.542-1.977,1.859-3.255c0.313-1.265,0.314-2.727-0.038-4.41L37.137,17.844z"/>
<path fill-rule="evenodd" clip-rule="evenodd" d="M27.504,21.249C41.988,12.804,12.58,12.197,27.504,21.249"/>
<path d="M29.801,14.911c0.066-0.368,0.114-0.715,0.147-1.039c0.158-1.602-0.049-2.798-0.432-3.621
	c-0.411-0.881-1.031-1.356-1.643-1.466l-0.001-0.001c-0.036-0.006-0.078-0.012-0.123-0.016c-0.132-0.013-0.258-0.01-0.38,0.008l0,0
	c-0.516,0.076-0.913,0.414-1.194,0.941c-0.253,0.475-0.416,1.113-0.489,1.853c-0.093,0.933-0.049,2.041,0.119,3.193l0.644-0.093
	c-0.163-1.103-0.206-2.155-0.117-3.035c0.064-0.658,0.203-1.214,0.415-1.612c0.185-0.345,0.425-0.562,0.718-0.605h0.001
	c0.07-0.01,0.143-0.012,0.221-0.004c0.021,0.002,0.046,0.005,0.076,0.01v0c0.416,0.075,0.853,0.431,1.164,1.101
	c0.341,0.73,0.523,1.811,0.377,3.284c-0.032,0.317-0.079,0.648-0.14,0.991L29.801,14.911z"/>
<path d="M19.12,15.489c-0.356-0.582-0.576-1.329-0.668-2.109c-0.105-0.888-0.047-1.813,0.159-2.587
	c0.194-0.735,0.516-1.324,0.945-1.585c0.118-0.073,0.246-0.12,0.382-0.135l0.004-0.001c0.218-0.029,0.429-0.01,0.631,0.049
	c0.441,0.131,0.836,0.46,1.148,0.936c0.329,0.5,0.563,1.156,0.661,1.908c0.11,0.854,0.045,1.831-0.254,2.847l0.622,0.184
	c0.326-1.104,0.397-2.174,0.275-3.113c-0.111-0.852-0.38-1.602-0.761-2.18c-0.395-0.604-0.915-1.029-1.507-1.205
	c-0.282-0.083-0.583-0.109-0.893-0.069V8.427c-0.232,0.027-0.448,0.107-0.646,0.228c-0.581,0.354-0.997,1.083-1.233,1.972
	c-0.226,0.852-0.292,1.862-0.176,2.829c0.103,0.867,0.352,1.705,0.76,2.373L19.12,15.489z"/>
<path d="M28.413,7.132c-0.317-0.118-0.65-0.178-0.98-0.172c-0.338,0.008-0.672,0.083-0.981,0.236
	c-0.769,0.375-0.932,1.343-0.772,1.875c0.248-0.665,0.627-1.081,1.057-1.292c0.227-0.11,0.468-0.166,0.709-0.17
	c0.248-0.005,0.502,0.041,0.743,0.13c0.559,0.208,1.064,0.651,1.355,1.25C29.771,8.268,29.21,7.428,28.413,7.132"/>
<path d="M21.47,6.067c-1.33-0.728-2.804-0.245-3.88,0.691c-0.65,0.566-1.676,2.148-1.299,3.575c0.155-1.136,0.829-2.307,1.724-3.086
	c0.474-0.412,1.007-0.71,1.554-0.831c0.528-0.116,1.073-0.063,1.59,0.22c0.683,0.375,1.329,1.147,1.851,2.456
	C23.382,7.998,22.276,6.509,21.47,6.067"/>
<path fill-rule="evenodd" clip-rule="evenodd" d="M27.168,10.583c-0.79,0.001-1.428,1.012-1.426,2.257
	c0.003,1.245,0.646,2.254,1.438,2.252c0.79-0.002,1.43-1.013,1.426-2.259C28.604,11.59,27.96,10.581,27.168,10.583"/>
<path fill-rule="evenodd" clip-rule="evenodd" d="M19.732,10.448c-0.918-0.031-1.703,1.116-1.751,2.563
	c-0.048,1.446,0.656,2.643,1.575,2.674c0.918,0.031,1.703-1.116,1.751-2.563C21.356,11.676,20.652,10.479,19.732,10.448"/>
<path d="M26.993,24.785c0.258,2.403-0.133,5.056-0.532,7.756v0.001c-0.067,0.451-0.133,0.904-0.201,1.382
	c-0.411,0.238-0.832,0.373-1.262,0.44h-0.001c-0.431,0.067-0.871,0.065-1.316,0.027c-0.657-1.151-1.292-2.34-1.883-3.584
	c-0.613-1.289-1.181-2.642-1.678-4.079l-0.615,0.212c0.504,1.455,1.082,2.83,1.707,4.146c0.623,1.309,1.294,2.56,1.991,3.772
	l0.083,0.146l0.164,0.017c0.553,0.058,1.104,0.069,1.649-0.016l0,0c0.555-0.086,1.101-0.272,1.635-0.61l0.128-0.082l0.02-0.147
	c0.068-0.488,0.146-1.009,0.223-1.529l0,0c0.404-2.74,0.803-5.433,0.535-7.919L26.993,24.785z"/>
<path d="M26.406,34.407c0.42,0.225,0.848,0.395,1.285,0.478c0.451,0.083,0.908,0.073,1.375-0.067l0.169-0.115
	c0.836-1.127,1.646-2.375,2.36-3.749c0.715-1.373,1.333-2.867,1.784-4.484l-0.625-0.174c-0.44,1.573-1.04,3.026-1.732,4.36
	c-0.677,1.296-1.443,2.486-2.243,3.569c-0.326,0.08-0.65,0.08-0.969,0.021c-0.365-0.068-0.732-0.215-1.098-0.41L26.406,34.407z"/>
<path d="M34.105,28.436c-0.423,1.104-0.839,1.978-1.255,2.697c-0.413,0.714-0.826,1.274-1.243,1.75
	C32.794,32.26,34.215,29.588,34.105,28.436"/>
<path d="M29.76,35.64c-1.44,1.351-2.857,1.923-4.254,1.887c-1.408-0.035-2.818-0.687-4.232-1.778
	c0.18,1.115,3.216,2.401,4.213,2.427C26.471,38.2,28.723,37.753,29.76,35.64"/>
<path d="M13.246,18.992c-0.312,3.709,0.16,6.905,1.656,9.428c1.502,2.533,4.027,4.376,7.81,5.362l0.165-0.628
	c-3.605-0.94-6.001-2.679-7.417-5.065c-1.422-2.397-1.867-5.464-1.566-9.042L13.246,18.992z"/>
<path d="M17.661,33.808c-2.769-1.604-5.66-4.362-6.406-7.567C10.892,29.193,14.996,33.018,17.661,33.808"/>
<path d="M28.122,4.642c0.559,0.463,0.999,1.001,1.282,1.608l0.006,0.01c0.485,0.976,0.895,2.278,1.303,3.581
	c0.837,2.673,1.674,5.347,3.353,5.667c2.11,0.281,3.836,1.043,4.962,2.928c0.786,1.316,1.091,2.99,0.972,4.813
	c-0.121,1.857-0.679,3.864-1.61,5.816c-2.206,4.619-6.502,8.909-12.063,10.136l0,0c-1.313,0.216-2.612,0.312-3.881,0.296
	c-4.669-0.057-8.975-1.618-12.291-4.25c-3.307-2.623-5.63-6.315-6.343-10.64c-0.164-0.996-0.244-2.025-0.231-3.083
	c0.02-1.596,0.519-2.851,1.4-3.885c0.901-1.056,2.21-1.897,3.821-2.646l0.146-0.11c0.382-0.447,0.741-0.978,1.059-1.622h0.001
	c0.313-0.633,0.586-1.374,0.804-2.251l0.058-0.236l-0.173-0.173c-0.267-0.267-0.518-0.499-0.762-0.725
	c-1.152-1.065-2.151-1.99-2.27-4.235c-0.021-0.39,0.034-0.688,0.145-0.907H7.81C7.97,4.42,8.277,4.249,8.66,4.18
	c0.452-0.08,1.003-0.023,1.569,0.114c1.187,0.287,2.402,0.915,2.96,1.415l0.172-0.191l0.144,0.12c0.69-0.83,1.601-1.484,2.637-1.969
	c1.898-0.887,4.215-1.21,6.406-1.024C24.725,2.828,26.766,3.513,28.122,4.642"/>
<path fill="#493728" d="M30.189,5.886c-0.339-0.728-0.859-1.367-1.514-1.91c-1.497-1.246-3.71-1.998-6.055-2.196
	c-2.33-0.196-4.805,0.151-6.842,1.104c-0.968,0.452-1.839,1.042-2.554,1.773c-0.721-0.472-1.773-0.957-2.795-1.203
	C9.755,3.291,9.083,3.227,8.509,3.328C7.864,3.442,7.337,3.755,7.037,4.345l0.001,0.001C6.861,4.698,6.772,5.14,6.801,5.687
	c0.137,2.6,1.255,3.634,2.545,4.827c0.187,0.173,0.377,0.349,0.562,0.528c-0.189,0.708-0.419,1.313-0.677,1.837v0.001
	c-0.266,0.538-0.564,0.988-0.884,1.372c-1.676,0.787-3.051,1.685-4.025,2.828c-1.01,1.185-1.583,2.618-1.605,4.438
	c-0.014,1.109,0.069,2.189,0.242,3.23c0.75,4.547,3.188,8.424,6.658,11.179c3.461,2.747,7.952,4.374,12.82,4.435
	c1.327,0.017,2.684-0.085,4.051-0.31l0.021-0.003c5.846-1.289,10.353-5.779,12.66-10.613c0.979-2.051,1.565-4.168,1.694-6.13
	c0.129-1.996-0.213-3.84-1.092-5.312c-1.021-1.706-2.748-2.902-5.277-3.245c-0.158-0.021-0.388-0.105-0.551-0.188
	c-1.011-0.522-1.709-2.749-2.406-4.975C31.12,8.252,30.703,6.917,30.189,5.886"/>
<path fill-rule="evenodd" clip-rule="evenodd" fill="#FFFFFF" d="M19.185,10.695c-0.402,0.001-0.727,0.377-0.726,0.842
	c0,0.464,0.328,0.838,0.729,0.838c0.402-0.001,0.728-0.378,0.727-0.842C19.915,11.07,19.587,10.694,19.185,10.695"/>
<path fill-rule="evenodd" clip-rule="evenodd" fill="#FFFFFF" d="M26.707,10.829c-0.302,0-0.548,0.282-0.546,0.628
	c0,0.346,0.247,0.626,0.549,0.626c0.303-0.001,0.548-0.283,0.547-0.629C27.257,11.108,27.011,10.828,26.707,10.829"/>
<path fill-rule="evenodd" clip-rule="evenodd" fill="#FFFFFF" d="M27.263,15.089c-1.76-0.034-2.293,0.479-2.292,0.684
	c0,0.204,0.756-0.08,2.283-0.159c1.529-0.081,3.311,0.809,3.309,0.606C30.563,16.015,29.021,15.123,27.263,15.089"/>
<path fill-rule="evenodd" clip-rule="evenodd" fill="#E2231A" d="M17.254,30.294c0.93-0.802,2.077-0.924,3.478-0.25
	c0.156,0.353,0.316,0.698,0.479,1.042c0.302,0.634,0.614,1.254,0.937,1.862C20.116,32.328,18.501,31.434,17.254,30.294"/>
<path fill-rule="evenodd" clip-rule="evenodd" fill="#C08A56" d="M18.015,7.248c0.474-0.412,1.007-0.71,1.554-0.831
	c0.528-0.116,1.073-0.063,1.59,0.22c0.683,0.375,1.329,1.147,1.851,2.456c0.373-1.095-0.733-2.584-1.539-3.026
	c-1.33-0.728-2.804-0.245-3.88,0.691c-0.65,0.566-1.676,2.148-1.299,3.575C16.446,9.198,17.12,8.026,18.015,7.248 M34.105,28.436
	c-0.423,1.104-0.839,1.978-1.255,2.697c-0.413,0.714-0.826,1.274-1.243,1.75C32.794,32.26,34.215,29.588,34.105,28.436z
	 M29.76,35.64c-1.44,1.351-2.857,1.923-4.254,1.887c-1.408-0.035-2.818-0.687-4.232-1.778c0.18,1.115,3.216,2.401,4.213,2.427
	C26.471,38.2,28.723,37.753,29.76,35.64z M11.255,26.24c-0.363,2.953,3.741,6.777,6.406,7.567
	C14.893,32.204,12.001,29.445,11.255,26.24z M26.451,7.196c-0.769,0.375-0.932,1.343-0.772,1.875
	c0.248-0.665,0.627-1.081,1.057-1.292c0.227-0.11,0.468-0.166,0.709-0.17c0.248-0.005,0.502,0.041,0.743,0.13
	c0.559,0.208,1.064,0.651,1.355,1.25c0.229-0.722-0.333-1.561-1.13-1.857c-0.317-0.118-0.65-0.178-0.98-0.172
	C27.095,6.968,26.761,7.043,26.451,7.196z M13.246,18.992c-0.081,0.555-0.106,1.073-0.084,1.555
	c-0.073,3.052,0.458,5.709,1.741,7.873c1.484,2.502,3.966,4.332,7.675,5.325c0.206,0.375,0.413,0.746,0.625,1.113l0.083,0.146
	l0.164,0.017c0.553,0.058,1.104,0.069,1.649-0.016c0.499-0.077,0.991-0.237,1.472-0.514c0.367,0.183,0.74,0.32,1.121,0.393
	c0.451,0.083,0.908,0.073,1.375-0.067l0.169-0.115c0.836-1.127,1.646-2.375,2.36-3.749c0.655-1.259,1.228-2.62,1.668-4.082
	c0.706-0.131,1.412-0.497,2.132-1.209c0.908-0.9,1.542-1.977,1.859-3.255c0.313-1.265,0.314-2.727-0.038-4.41l-0.08-0.153
	l-0.01-0.012c-1.67-1.766-4.315-2.802-7.271-3.25c0.039-0.247,0.069-0.484,0.092-0.71c0.158-1.602-0.049-2.798-0.432-3.621
	c-0.411-0.881-1.031-1.356-1.644-1.468L27.75,8.767c-0.132-0.013-0.258-0.01-0.38,0.008c-0.516,0.076-0.913,0.414-1.194,0.941
	c-0.253,0.475-0.416,1.113-0.489,1.853c-0.081,0.814-0.06,1.761,0.062,2.754c-0.229,0.003-0.459,0.011-0.688,0.02
	c-0.732,0.031-1.466,0.091-2.186,0.178c0.217-0.935,0.252-1.834,0.149-2.639c-0.111-0.852-0.38-1.602-0.761-2.18
	c-0.395-0.604-0.915-1.029-1.507-1.205c-0.282-0.083-0.583-0.109-0.893-0.071c-0.232,0.027-0.448,0.107-0.646,0.228
	c-0.581,0.354-0.997,1.083-1.233,1.972c-0.226,0.852-0.292,1.862-0.176,2.829c0.085,0.716,0.27,1.414,0.562,2.01
	c-2.035,0.634-3.756,1.505-4.869,2.553l-0.01,0.008l-0.093,0.164C13.333,18.465,13.283,18.733,13.246,18.992z M3.811,24.607
	c-0.164-0.996-0.244-2.025-0.231-3.083c0.02-1.596,0.519-2.851,1.4-3.885c0.901-1.056,2.21-1.897,3.821-2.646l0.146-0.11
	c0.382-0.447,0.741-0.978,1.06-1.622c0.313-0.633,0.586-1.374,0.804-2.251l0.058-0.236l-0.173-0.173
	c-0.267-0.267-0.518-0.499-0.762-0.725c-1.152-1.065-2.151-1.99-2.27-4.235C7.643,5.253,7.697,4.956,7.81,4.736
	C7.97,4.42,8.277,4.249,8.66,4.18c0.452-0.08,1.003-0.023,1.569,0.114c1.187,0.287,2.402,0.915,2.96,1.415l0.172,0.127l0.144-0.198
	c0.69-0.83,1.601-1.484,2.637-1.969c1.898-0.887,4.215-1.21,6.406-1.024c2.176,0.184,4.217,0.868,5.574,1.998
	c0.559,0.463,0.999,1.001,1.282,1.608l0.006,0.01c0.485,0.976,0.895,2.278,1.303,3.581c0.837,2.673,1.674,5.347,3.353,5.667
	c2.11,0.281,3.836,1.043,4.962,2.928c0.786,1.316,1.091,2.99,0.972,4.813c-0.121,1.857-0.679,3.864-1.61,5.816
	c-2.206,4.619-6.502,8.909-12.063,10.136c-1.313,0.216-2.612,0.312-3.881,0.296c-4.669-0.057-8.975-1.618-12.291-4.25
	C6.847,32.624,4.524,28.932,3.811,24.607z"/>
<path fill-rule="evenodd" clip-rule="evenodd" fill="#FFFFFF" d="M21.797,30.808c-0.556-1.169-1.074-2.389-1.537-3.679
	c1.344-0.141,3.158-0.744,5.882-1.651l0.888-0.296c0.179,2.297-0.192,4.81-0.569,7.36l-0.201,1.382
	c-0.411,0.238-0.832,0.373-1.263,0.44s-0.871,0.065-1.316,0.027C23.023,33.24,22.389,32.052,21.797,30.808"/>
<path fill-rule="evenodd" clip-rule="evenodd" fill="#FFFFFF" d="M27.104,32.637c0.377-2.553,0.748-5.067,0.58-7.41
	c0.461,0.187,0.91,0.393,1.35,0.593c1.235,0.563,2.393,1.093,3.534,1.108c-0.416,1.332-0.947,2.575-1.545,3.728
	c-0.677,1.296-1.443,2.486-2.243,3.569c-0.326,0.08-0.65,0.08-0.969,0.021c-0.299-0.056-0.598-0.164-0.896-0.31L27.104,32.637z"/>
<path fill-rule="evenodd" clip-rule="evenodd" fill="#ECC990" d="M34.939,25.2c-1.8,1.782-3.601,0.96-5.639,0.027
	c-0.513-0.232-1.037-0.473-1.585-0.685c0.146-0.57,0.242-1.239,0.276-1.904c0.028-0.57,0.013-1.139-0.062-1.644
	c4.677-2.848,4.272-4.768,2.373-5.686c2.563,0.459,4.831,1.395,6.297,2.912c0.313,1.544,0.31,2.881,0.023,4.031
	C36.338,23.41,35.762,24.386,34.939,25.2"/>
<path fill-rule="evenodd" clip-rule="evenodd" fill="#ECC990" d="M27.061,24.487l-1.124,0.373c-4.094,1.363-6.051,2.016-7.312,1.445
	l-0.034-0.015c-1.348-0.607-4.64-2.096-4.775-5.884c0.013-0.438,0.039-0.883,0.077-1.337c0.001-0.007,0.002-0.015,0.002-0.022
	c0.03-0.202,0.067-0.407,0.114-0.62c2.102-1.921,6.439-3.21,10.891-3.427c-2.296,0.729-3.084,2.736,2.395,6.12
	c0.063,0.453,0.076,0.968,0.049,1.488C27.311,23.272,27.209,23.939,27.061,24.487"/>
<path fill-rule="evenodd" clip-rule="evenodd" fill="#FFFFFF" d="M22.38,11.964c0.103,0.798,0.053,1.705-0.2,2.649
	c-0.456,0.067-0.907,0.144-1.35,0.231c0.276-0.454,0.455-1.056,0.477-1.723c0.049-1.446-0.656-2.643-1.575-2.674
	c-0.3-0.01-0.586,0.106-0.838,0.318c-0.162,0.082-0.293,0.23-0.367,0.415c-0.002,0.003-0.005,0.007-0.007,0.01
	c0.026-0.137,0.055-0.269,0.09-0.398c0.194-0.735,0.516-1.324,0.945-1.585c0.118-0.073,0.246-0.12,0.386-0.137
	c0.218-0.029,0.429-0.01,0.631,0.049c0.441,0.131,0.836,0.46,1.148,0.936C22.048,10.557,22.283,11.212,22.38,11.964"/>
<path fill-rule="evenodd" clip-rule="evenodd" fill="#FFFFFF" d="M28.605,12.834c-0.002-1.244-0.646-2.253-1.438-2.25
	c-0.263,0-0.51,0.114-0.724,0.31c0.075-0.339,0.175-0.634,0.303-0.872c0.185-0.345,0.425-0.562,0.719-0.605
	c0.07-0.01,0.143-0.012,0.221-0.004l0.076,0.01c0.416,0.075,0.853,0.431,1.164,1.101c0.341,0.73,0.523,1.811,0.377,3.284
	c-0.023,0.223-0.052,0.452-0.09,0.688c-0.331-0.04-0.665-0.073-1.001-0.099C28.458,13.989,28.608,13.439,28.605,12.834"/>
<path fill-rule="evenodd" clip-rule="evenodd" fill="#F4DBB2" d="M23.774,15.564c-1.823,0.162-3.679,0.517-5.495,1.082
	c-0.236-0.082-0.481-0.155-0.731-0.222c2.116-0.79,4.714-1.296,7.352-1.424C24.458,15.14,24.07,15.327,23.774,15.564"/>
<path fill-rule="evenodd" clip-rule="evenodd" fill="#F4DBB2" d="M17.802,16.799c-1.296,0.431-2.569,0.972-3.793,1.628
	c0.767-0.701,1.833-1.318,3.093-1.83C17.338,16.658,17.572,16.725,17.802,16.799"/>
<path fill-rule="evenodd" clip-rule="evenodd" fill="#F4DBB2" d="M31.266,16.017c-0.233-0.279-0.564-0.515-0.962-0.707
	c1.686,0.302,3.242,0.81,4.528,1.553c-0.13,0.06-0.255,0.121-0.374,0.185C33.481,16.621,32.408,16.275,31.266,16.017"/>
<defs>
	<filter id="Adobe_OpacityMaskFilter" filterUnits="userSpaceOnUse" x="14.898" y="9.901" width="1.736" height="6.414">
		<feColorMatrix  type="matrix" values="1 0 0 0 0  0 1 0 0 0  0 0 1 0 0  0 0 0 1 0"/>
	</filter>
</defs>
<mask maskUnits="userSpaceOnUse" x="14.898" y="9.901" width="1.736" height="6.414" id="SVGID_1_">
	<g filter="url(#Adobe_OpacityMaskFilter)">
		<g>
			<defs>
				<rect id="SVGID_2_" x="13.507" y="9.901" width="3.126" height="7.343"/>
			</defs>
			<clipPath id="SVGID_3_">
				<use xlink:href="#SVGID_2_"  overflow="visible"/>
			</clipPath>
			
				<rect x="13.256" y="9.901" transform="matrix(0.9974 -0.0715 0.0715 0.9974 -0.9429 1.0106)" clip-path="url(#SVGID_3_)" fill="#FFFFFF" width="0.772" height="7.545"/>
			
				<rect x="16.114" y="9.7" transform="matrix(-0.9974 0.0716 -0.0716 -0.9974 33.9199 25.7273)" clip-path="url(#SVGID_3_)" width="0.771" height="7.544"/>
			<g>
				<defs>
					
						<rect id="SVGID_4_" x="13.761" y="9.8" transform="matrix(-0.9975 0.0703 -0.0703 -0.9975 31.0572 26.0512)" width="2.618" height="7.545"/>
				</defs>
				<clipPath id="SVGID_5_" clip-path="url(#SVGID_3_)">
					<use xlink:href="#SVGID_4_"  overflow="visible"/>
				</clipPath>
				<g transform="matrix(1 0 0 1 9.536743e-007 0)" clip-path="url(#SVGID_5_)">
					
						<image overflow="visible" width="256" height="1" xlink:href="B298A117.jpg"  transform="matrix(0.0102 -7.198212e-004 0.5312 7.5258 13.4995 9.9019)">
					</image>
				</g>
			</g>
		</g>
	</g>
</mask>
<path mask="url(#SVGID_1_)" fill-rule="evenodd" clip-rule="evenodd" fill="#FFFFFF" d="M15.344,13.085
	c-0.003-1.065,0.361-2.046,0.973-2.824c-0.026-0.12-0.044-0.24-0.053-0.36c-0.845,0.823-1.369,1.974-1.365,3.246
	c0,0.148,0.007,0.295,0.022,0.439c0.096,0.971,0.5,1.851,1.111,2.543c0.04,0.044,0.081,0.088,0.122,0.132
	c0.111,0.017,0.222,0.034,0.332,0.053c0.049-0.022,0.1-0.044,0.15-0.065c-0.687-0.705-1.146-1.632-1.262-2.664
	C15.354,13.421,15.344,13.255,15.344,13.085"/>
<path fill="#493728" d="M8.781,5.789c2.297-0.678,3.735,1.27,4.172,2.195C13.005,5.897,10.012,4.724,8.781,5.789"/>
<path fill-rule="evenodd" clip-rule="evenodd" fill="#ECC990" d="M12.778,7.653c-0.688,0.567-1.13,1.323-1.427,2.194
	C6.561,5.922,10.334,3.9,12.778,7.653"/>
<path fill-rule="evenodd" clip-rule="evenodd" fill="#C08A56" d="M12.953,7.984c0.052-2.086-2.941-3.26-4.172-2.195
	c0.247,2.166,1.075,2.773,2.57,4.059c0.297-0.871,0.74-1.627,1.427-2.194C12.848,7.772,12.906,7.884,12.953,7.984 M13.36,5.834
	l0.304,2.66l-2.796,2.282l-0.173-0.173c-0.267-0.267-0.518-0.499-0.762-0.725c-1.152-1.065-2.151-1.99-2.27-4.235
	C7.643,5.253,7.697,4.956,7.81,4.736C7.97,4.42,8.277,4.249,8.66,4.18c0.452-0.08,1.003-0.023,1.569,0.114
	c1.187,0.287,2.402,0.915,2.96,1.415L13.36,5.834z"/>
<path fill-rule="evenodd" clip-rule="evenodd" fill="#493728" d="M13.189,5.708c-0.559-0.5-1.773-1.127-2.96-1.415
	C9.663,4.157,9.111,4.101,8.66,4.18C8.277,4.249,7.97,4.42,7.81,4.736C7.697,4.956,7.643,5.253,7.664,5.644
	c0.119,2.245,1.118,3.169,2.27,4.235c0.244,0.226,0.496,0.458,0.762,0.725l0.173,0.173l-0.961,0.266l-0.562-0.528
	c-1.29-1.193-2.408-2.228-2.545-4.827C6.772,5.14,6.861,4.698,7.037,4.345c0.3-0.59,0.827-0.903,1.472-1.017
	c0.574-0.102,1.247-0.038,1.922,0.126c1.48,0.358,2.858,1.358,2.93,2.38L13.189,5.708z"/>
<path fill-rule="evenodd" clip-rule="evenodd" fill="#A3693F" d="M29.011,34.834c-0.084,0.781-1.438,0.754-2.454,0.428
	c-0.995,0.613-2.209,0.657-3.885,0.184l-0.698-0.994c-6.032-1.968-8.263-5.238-8.361-9.245c0.286,1.165,0.711,2.239,1.289,3.214
	c1.484,2.502,3.966,4.332,7.675,5.325c0.206,0.375,0.413,0.746,0.625,1.113l0.083,0.146l0.164,0.017
	c0.553,0.058,1.104,0.069,1.649-0.016c0.499-0.077,0.991-0.237,1.472-0.514c0.367,0.183,0.74,0.32,1.121,0.393
	C28.124,34.964,28.563,34.958,29.011,34.834"/>
<path fill-rule="evenodd" clip-rule="evenodd" fill="#A3693F" d="M29.396,36.251c-2.394,3.19-5.841,3.425-7.466,0.395
	c0.993,0.811,2.826,1.511,3.558,1.529C26.368,38.197,28.265,37.843,29.396,36.251"/>
<path fill-rule="evenodd" clip-rule="evenodd" fill="#C88A3D" d="M27.85,23.915c3.609,2.074,6.427,1.848,8.296-1.132
	c0.1,0.024,0.198,0.049,0.298,0.074c-0.32,0.896-0.828,1.674-1.504,2.343c-1.8,1.782-3.601,0.96-5.639,0.027
	c-0.513-0.232-1.037-0.473-1.585-0.685C27.767,24.345,27.811,24.134,27.85,23.915"/>
<path fill-rule="evenodd" clip-rule="evenodd" fill="#C88A3D" d="M25.937,24.86c-4.094,1.363-6.051,2.016-7.312,1.445l-0.034-0.015
	c-0.857-0.387-2.499-1.128-3.616-2.59c0.107-0.046,0.215-0.09,0.324-0.132c2.828,2.642,6.874,2.494,11.953-0.015
	c-0.049,0.331-0.112,0.648-0.19,0.933L25.937,24.86z"/>
<path fill-rule="evenodd" clip-rule="evenodd" fill="#A3693F" d="M6.735,29.958c2.347,4.07,6.585,7.333,11.412,9.047
	c-2.994-0.658-5.725-1.958-7.994-3.758c-0.233-0.184-0.46-0.373-0.682-0.569c0.004-0.007,0.01-0.014,0.015-0.021l-0.227-0.167
	c-2.829-2.558-4.801-5.959-5.449-9.882c-0.164-0.996-0.244-2.025-0.231-3.083c0.02-1.596,0.519-2.851,1.4-3.885
	c0.901-1.056,2.21-1.897,3.821-2.646C3.896,17.298,3.542,24.428,6.735,29.958"/>
<path fill-rule="evenodd" clip-rule="evenodd" fill="#A3693F" d="M9.735,21.452l3.708-3.344l-0.047,0.082
	c-0.063,0.275-0.113,0.543-0.15,0.802C12.433,19.591,11.168,20.16,9.735,21.452"/>
<path fill-rule="evenodd" clip-rule="evenodd" fill="#E6E7E8" d="M27.811,34.246c1.719-1.728,3.046-4.11,3.802-7.439
	c0.321,0.073,0.639,0.116,0.955,0.121c-0.416,1.332-0.947,2.575-1.545,3.728c-0.677,1.296-1.443,2.486-2.243,3.569
	C28.453,34.305,28.129,34.305,27.811,34.246"/>
<path fill-rule="evenodd" clip-rule="evenodd" fill="#E6E7E8" d="M25.495,34.253c0.597-3.08,0.843-6.017,0.647-8.775l0.888-0.296
	c0.179,2.297-0.192,4.81-0.569,7.36l-0.201,1.382C26.009,34.068,25.753,34.177,25.495,34.253"/>
<path fill-rule="evenodd" clip-rule="evenodd" fill="#F4DBB2" d="M34.811,17.207c0.113-0.052,0.227-0.102,0.342-0.151
	c0.541,0.342,1.027,0.73,1.448,1.166C36.056,17.848,35.456,17.51,34.811,17.207"/>
<path fill="#493728" d="M32.659,21.376c-0.092,0-0.166,0.074-0.166,0.167c0,0.09,0.075,0.164,0.167,0.164
	c0.091,0,0.163-0.074,0.163-0.165C32.823,21.449,32.751,21.376,32.659,21.376 M29.703,21.512c-0.093,0-0.165,0.075-0.165,0.165
	c0,0.092,0.074,0.166,0.165,0.166c0.093-0.001,0.165-0.075,0.165-0.167C29.868,21.585,29.793,21.511,29.703,21.512z M30.365,23.488
	c-0.09,0-0.165,0.075-0.163,0.166c0,0.092,0.073,0.166,0.165,0.166c0.092-0.001,0.165-0.075,0.164-0.166
	C30.531,23.563,30.458,23.488,30.365,23.488z M31.169,21.875c-0.093,0-0.166,0.074-0.166,0.165c0,0.092,0.075,0.166,0.166,0.166
	c0.092,0,0.166-0.074,0.165-0.166C31.334,21.948,31.259,21.875,31.169,21.875z M33.625,21.292c-0.091,0-0.164,0.075-0.164,0.166
	c0,0.092,0.073,0.166,0.165,0.166c0.091,0,0.165-0.075,0.165-0.166C33.791,21.365,33.716,21.292,33.625,21.292z M34.388,22.659
	c-0.092,0-0.165,0.073-0.164,0.166c0,0.091,0.075,0.165,0.166,0.165c0.09-0.002,0.165-0.074,0.165-0.166
	C34.554,22.732,34.479,22.658,34.388,22.659z M31.433,22.794c-0.091,0-0.166,0.075-0.166,0.165c0,0.092,0.075,0.166,0.167,0.166
	c0.091,0,0.165-0.075,0.165-0.166C31.599,22.867,31.523,22.794,31.433,22.794z M32.096,24.771c-0.092,0-0.164,0.075-0.164,0.167
	s0.073,0.165,0.165,0.165c0.091,0,0.165-0.075,0.165-0.166C32.262,24.845,32.188,24.771,32.096,24.771z M32.897,23.157
	c-0.091,0-0.166,0.074-0.166,0.166c0,0.091,0.076,0.164,0.167,0.164s0.166-0.075,0.166-0.166
	C33.064,23.229,32.989,23.157,32.897,23.157z M31.896,20.008c-0.092,0-0.167,0.075-0.167,0.167c0.001,0.091,0.076,0.165,0.167,0.165
	c0.092,0,0.165-0.074,0.165-0.167C32.062,20.083,31.987,20.008,31.896,20.008z M23.184,20.792c0.092,0,0.167,0.073,0.167,0.165
	s-0.074,0.165-0.166,0.166c-0.092,0-0.165-0.073-0.165-0.166C23.02,20.867,23.093,20.792,23.184,20.792z M22.428,22.162
	c0.091,0,0.165,0.074,0.165,0.166c0.001,0.092-0.073,0.164-0.165,0.164c-0.091,0.002-0.165-0.071-0.167-0.163
	C22.262,22.236,22.336,22.164,22.428,22.162z M25.384,22.285c0.092,0,0.167,0.073,0.167,0.165c0,0.091-0.075,0.165-0.166,0.165
	c-0.092,0-0.165-0.073-0.165-0.165C25.22,22.359,25.293,22.285,25.384,22.285z M24.729,24.266c0.092,0,0.165,0.072,0.165,0.164
	c0.001,0.093-0.071,0.167-0.164,0.167c-0.092,0-0.165-0.073-0.165-0.165C24.565,24.341,24.639,24.266,24.729,24.266z M23.922,22.654
	c0.091,0,0.164,0.074,0.164,0.165s-0.072,0.165-0.164,0.165c-0.091,0.002-0.166-0.072-0.167-0.165
	C23.755,22.729,23.83,22.655,23.922,22.654z M20.922,21.39c0.091,0,0.165,0.075,0.165,0.167c0,0.091-0.073,0.165-0.164,0.165
	s-0.167-0.073-0.167-0.165C20.756,21.466,20.831,21.392,20.922,21.39z M20.165,22.762c0.091,0,0.166,0.074,0.166,0.164
	c0,0.093-0.074,0.167-0.166,0.167S20,23.02,20,22.928C20,22.837,20.074,22.762,20.165,22.762z M23.121,22.883
	c0.092,0,0.167,0.076,0.167,0.166s-0.075,0.165-0.165,0.165c-0.093,0-0.167-0.072-0.167-0.164
	C22.957,22.959,23.03,22.883,23.121,22.883z M22.466,24.864c0.092,0,0.167,0.073,0.167,0.165c0,0.091-0.074,0.166-0.165,0.166
	c-0.092,0-0.166-0.073-0.166-0.164C22.303,24.939,22.376,24.864,22.466,24.864z M21.657,23.254c0.092-0.001,0.167,0.073,0.167,0.164
	c0,0.092-0.074,0.165-0.166,0.167c-0.091,0-0.166-0.075-0.166-0.166C21.492,23.327,21.566,23.254,21.657,23.254z M27.222,20.721
	c0.121,0.534,0.157,1.207,0.121,1.887c-0.036,0.732-0.154,1.465-0.328,2.041l0.621,0.187c0.188-0.626,0.315-1.416,0.356-2.196
	c0.038-0.735-0.002-1.472-0.139-2.065L27.222,20.721z"/>
<path fill-rule="evenodd" clip-rule="evenodd" fill="#E2C5AC" d="M28.929,4.197c0.308-0.725,1.485-1.333,1.933-1.032
	c-0.034-0.044-0.071-0.082-0.111-0.112c-0.218-0.17-0.533-0.146-0.937,0.031c-0.363,0.16-0.78,0.437-1.244,0.806
	c0.036,0.029,0.071,0.057,0.106,0.086C28.822,4.098,28.796,4.066,28.929,4.197"/>
<path fill-rule="evenodd" clip-rule="evenodd" fill="#E2C5AC" d="M13.36,5.834l0.195,0.169c3.337-3.801,10.518-4.377,14.751-1.203
	c-0.061-0.054-0.122-0.107-0.185-0.159c-1.356-1.129-3.397-1.814-5.574-1.998c-2.19-0.186-4.508,0.138-6.406,1.024
	c-1.036,0.484-1.946,1.138-2.637,1.969L13.36,5.834z"/>
<path fill-rule="evenodd" clip-rule="evenodd" fill="#E2C5AC" d="M10.868,10.776l-0.058,0.236c-0.218,0.877-0.492,1.618-0.804,2.25
	c-0.319,0.643-0.677,1.175-1.06,1.622L8.8,14.995c-0.035,0.016-0.068,0.033-0.103,0.049C10.026,14.492,10.942,12.083,10.868,10.776"
	/>
<path fill-rule="evenodd" clip-rule="evenodd" fill="#493728" d="M19.014,8.693c2.494-0.006,4.522,2.012,4.528,4.506
	c0.005,2.494-2.013,4.521-4.507,4.528c-2.495,0.005-4.522-2.013-4.527-4.507C14.502,10.727,16.52,8.699,19.014,8.693 M19.011,7.472
	c3.168-0.007,5.745,2.556,5.751,5.725c0.008,3.169-2.556,5.744-5.726,5.751c-3.168,0.008-5.743-2.556-5.75-5.725
	C13.279,10.054,15.843,7.479,19.011,7.472z"/>
<defs>
	<filter id="Adobe_OpacityMaskFilter_1_" filterUnits="userSpaceOnUse" x="14.494" y="8.626" width="9.107" height="9.108">
		<feColorMatrix  type="matrix" values="1 0 0 0 0  0 1 0 0 0  0 0 1 0 0  0 0 0 1 0"/>
	</filter>
</defs>
<mask maskUnits="userSpaceOnUse" x="14.494" y="8.626" width="9.107" height="9.108" id="SVGID_6_">
	<g filter="url(#Adobe_OpacityMaskFilter_1_)">
		<g>
			<defs>
				<rect id="SVGID_7_" x="1.567" y="8.537" width="22.292" height="9.198"/>
			</defs>
			<clipPath id="SVGID_8_">
				<use xlink:href="#SVGID_7_"  overflow="visible"/>
			</clipPath>
			<g>
				<defs>
					
						<rect id="SVGID_9_" x="1.354" y="7.989" transform="matrix(-0.9988 0.0497 -0.0497 -0.9988 26.0657 25.6225)" width="22.721" height="10.293"/>
				</defs>
				<clipPath id="SVGID_10_" clip-path="url(#SVGID_8_)">
					<use xlink:href="#SVGID_9_"  overflow="visible"/>
				</clipPath>
				<g transform="matrix(1 -3.725290e-009 3.725290e-009 1 0 0)" clip-path="url(#SVGID_10_)">
					
						<image overflow="visible" width="256" height="1" xlink:href="B298A115.jpg"  transform="matrix(0.0887 -0.0044 0.5116 10.2809 1.1099 8.5601)">
					</image>
				</g>
			</g>
		</g>
	</g>
</mask>
<path mask="url(#SVGID_6_)" fill-rule="evenodd" clip-rule="evenodd" fill="#FFFFFF" d="M19.037,8.626
	c2.515-0.006,4.557,2.029,4.564,4.543c0.007,2.515-2.028,4.559-4.543,4.565c-2.514,0.006-4.559-2.029-4.563-4.543
	C14.487,10.676,16.521,8.631,19.037,8.626"/>
<path fill-rule="evenodd" clip-rule="evenodd" fill="#493728" d="M31.15,8.205c2.047-0.004,3.711,1.715,3.717,3.838
	c0.004,2.125-1.651,3.851-3.697,3.856c-2.046,0.004-3.71-1.714-3.716-3.838C27.45,9.937,29.104,8.21,31.15,8.205 M31.149,7.166
	c2.599-0.006,4.712,2.178,4.719,4.876c0.006,2.698-2.098,4.891-4.697,4.897c-2.598,0.007-4.712-2.177-4.718-4.875
	C26.447,9.365,28.55,7.172,31.149,7.166z"/>
<defs>
	<filter id="Adobe_OpacityMaskFilter_2_" filterUnits="userSpaceOnUse" x="27.444" y="8.149" width="7.471" height="7.755">
		<feColorMatrix  type="matrix" values="1 0 0 0 0  0 1 0 0 0  0 0 1 0 0  0 0 0 1 0"/>
	</filter>
</defs>
<mask maskUnits="userSpaceOnUse" x="27.444" y="8.149" width="7.471" height="7.755" id="SVGID_11_">
	<g filter="url(#Adobe_OpacityMaskFilter_2_)">
		<g>
			<defs>
				<rect id="SVGID_12_" x="20.051" y="8.148" width="16.782" height="8.645"/>
			</defs>
			<clipPath id="SVGID_13_">
				<use xlink:href="#SVGID_12_"  overflow="visible"/>
			</clipPath>
			
				<rect x="19.795" y="8.114" transform="matrix(0.9977 -0.0681 0.0681 0.9977 -0.8371 1.4422)" clip-path="url(#SVGID_13_)" fill="#FFFFFF" width="1.871" height="9.766"/>
			
				<rect x="35.217" y="7.062" transform="matrix(-0.9977 0.0681 -0.0681 -0.9977 73.0348 21.4019)" clip-path="url(#SVGID_13_)" width="1.873" height="9.766"/>
			<g>
				<defs>
					
						<rect id="SVGID_14_" x="19.95" y="7.588" transform="matrix(-0.9977 0.0681 -0.0681 -0.9977 57.6664 22.9766)" width="16.983" height="9.765"/>
				</defs>
				<clipPath id="SVGID_15_" clip-path="url(#SVGID_13_)">
					<use xlink:href="#SVGID_14_"  overflow="visible"/>
				</clipPath>
				<g transform="matrix(1 0 0 1 -1.907349e-006 -9.536743e-007)" clip-path="url(#SVGID_15_)">
					
						<image overflow="visible" width="256" height="1" xlink:href="B298A11B.jpg"  transform="matrix(0.0662 -0.0045 0.6643 9.7434 19.6387 8.1768)">
					</image>
				</g>
			</g>
		</g>
	</g>
</mask>
<path mask="url(#SVGID_11_)" fill-rule="evenodd" clip-rule="evenodd" fill="#FFFFFF" d="M31.17,8.149
	c2.063-0.005,3.739,1.727,3.745,3.869c0.005,2.142-1.664,3.882-3.729,3.887c-2.062,0.005-3.738-1.728-3.742-3.869
	C27.438,9.894,29.107,8.153,31.17,8.149"/>
<path fill-rule="evenodd" clip-rule="evenodd" fill="#493728" d="M9.305,12.724h4.391v1.335l-5.181-0.018
	C7.823,13.596,8.159,12.673,9.305,12.724"/>
<rect x="23.931" y="12.67" fill-rule="evenodd" clip-rule="evenodd" fill="#493728" width="3.503" height="1.425"/>
<path fill-rule="evenodd" clip-rule="evenodd" fill="#E2C5AC" d="M35.979,15.951c5.943,3.329,3.356,12.839-1.199,18.191
	c-0.103,0.119-0.205,0.235-0.309,0.351c-0.143,0.158-0.285,0.312-0.431,0.46c-0.007,0.009-0.014,0.016-0.02,0.022
	c-0.051,0.052-0.102,0.103-0.152,0.152c-0.215,0.215-0.434,0.42-0.655,0.614c-0.069,0.061-0.142,0.123-0.209,0.18
	c0.069-0.057,0.141-0.114,0.209-0.172c0.232-0.193,0.46-0.394,0.683-0.598c0.059-0.054,0.118-0.108,0.177-0.163
	c0.148-0.143,0.297-0.284,0.442-0.43c0.126-0.128,0.25-0.257,0.373-0.386c1.453-1.544,2.637-3.301,3.501-5.108
	c0.932-1.952,1.489-3.959,1.61-5.816c0.119-1.824-0.186-3.498-0.972-4.813C38.264,17.158,37.226,16.396,35.979,15.951"/>
<path fill="#493728" d="M33.005,18.371c0.978-0.888,2.291-1.468,3.679-1.822c1.773-0.453,3.665-0.534,5.137-0.413
	C40.304,15.566,34.165,15.995,33.005,18.371 M32.544,20.575c1.618-0.486,3.337-0.719,5.038-0.702c1.705,0.019,3.395,0.29,4.95,0.809
	C39.391,19.441,35.722,18.975,32.544,20.575z M21.627,22.549c-1.365-0.193-2.998-0.011-4.659,0.456
	c-1.709,0.479-3.449,1.264-4.96,2.258C13.042,24.118,17.977,21.445,21.627,22.549z M21.154,20.602
	c-1.621-0.479-3.34-0.704-5.042-0.678c-1.705,0.026-3.392,0.305-4.946,0.831C14.304,19.5,17.969,19.016,21.154,20.602z
	 M20.682,18.399c-0.98-0.883-2.297-1.458-3.687-1.806c-1.775-0.444-3.667-0.518-5.138-0.39
	C13.372,15.628,19.512,16.028,20.682,18.399z M32.079,22.524c1.363-0.198,2.996-0.024,4.66,0.435
	c1.714,0.473,3.455,1.248,4.973,2.235C40.673,24.055,35.726,21.404,32.079,22.524z"/>
</svg>
