<?xml version="1.0" encoding="utf-8"?>
<!-- Generator: Adobe Illustrator 16.0.3, SVG Export Plug-In . SVG Version: 6.00 Build 0)  -->
<!DOCTYPE svg PUBLIC "-//W3C//DTD SVG 1.1//EN" "http://www.w3.org/Graphics/SVG/1.1/DTD/svg11.dtd">
<svg version="1.1" id="Layer_1" xmlns="http://www.w3.org/2000/svg" xmlns:xlink="http://www.w3.org/1999/xlink" x="0px" y="0px"
	 width="96px" height="26px" viewBox="0 0 96 26" enable-background="new 0 0 96 26" xml:space="preserve">
<g id="Layer_1_1_">
	<path fill="#3274D1" d="M96,23c0,1.656-1.346,3-3.005,3H3.005C1.346,26,0,24.656,0,23V3c0-1.657,1.346-3,3.005-3h89.99
		C94.654,0,96,1.343,96,3V23z"/>
</g>
<g id="Share">
	<g>
		<path fill="#FFFFFF" d="M31.927,14.877v0.295c0,0.938,0.266,1.541,1.331,1.541c0.617,0,1.205-0.393,1.205-1.234
			c0-0.91-0.462-1.246-1.793-1.709c-1.793-0.615-2.62-1.357-2.62-3.024c0-1.947,1.19-2.941,3.096-2.941
			c1.793,0,3.096,0.77,3.096,2.689v0.28h-1.933c0-0.938-0.322-1.485-1.093-1.485c-0.91,0-1.148,0.575-1.148,1.163
			c0,0.617,0.182,0.995,1.037,1.359l1.555,0.673c1.513,0.659,1.905,1.428,1.905,2.647c0,2.115-1.289,3.068-3.474,3.068
			c-2.283,0-3.18-1.064-3.18-2.914v-0.406L31.927,14.877L31.927,14.877z"/>
		<path fill="#FFFFFF" d="M37.428,7.999h2.017v3.824h2.354V7.999h2.017V18h-2.017v-4.439h-2.354V18h-2.017V7.999z"/>
		<path fill="#FFFFFF" d="M47.02,7.999h2.494L52.16,18h-2.1l-0.463-2.115h-2.662L46.473,18h-2.101L47.02,7.999z M47.286,14.232
			h1.961L48.28,9.736h-0.028L47.286,14.232z"/>
		<path fill="#FFFFFF" d="M52.716,7.999h3.728c1.652,0,2.66,0.869,2.66,2.578c0,1.331-0.531,2.228-1.666,2.466v0.027
			c1.373,0.182,1.582,0.938,1.61,3.053c0.015,1.051,0.069,1.598,0.448,1.793V18h-2.186c-0.196-0.279-0.238-0.658-0.252-1.051
			l-0.058-1.918c-0.026-0.785-0.378-1.262-1.19-1.262h-1.078V18h-2.018L52.716,7.999L52.716,7.999z M54.732,12.37h0.841
			c0.967,0,1.513-0.42,1.513-1.499c0-0.924-0.49-1.387-1.4-1.387h-0.951v2.886H54.732z"/>
		<path fill="#FFFFFF" d="M65.949,7.999v1.653h-3.571v2.354h3.361v1.653h-3.361v2.688h3.712V18h-5.73V7.999H65.949z"/>
	</g>
</g>
</svg>
