<?xml version="1.0" encoding="utf-8"?>
<!-- Generator: Adobe Illustrator 16.0.3, SVG Export Plug-In . SVG Version: 6.00 Build 0)  -->
<!DOCTYPE svg PUBLIC "-//W3C//DTD SVG 1.1//EN" "http://www.w3.org/Graphics/SVG/1.1/DTD/svg11.dtd">
<svg version="1.1" id="Layer_1" xmlns="http://www.w3.org/2000/svg" xmlns:xlink="http://www.w3.org/1999/xlink" x="0px" y="0px"
	 width="66px" height="66px" viewBox="0 0 66 66" enable-background="new 0 0 66 66" xml:space="preserve">
<g>
	<g>
		<path fill="#522C10" d="M40.989,10.013c0,0,4.811-11.179,12.161-8.403c7.349,2.777,11.153,9.768,9.871,13.366
			c-1.288,3.598-6.89,7.094-9.563,1.799c-2.673-5.295-1.492-11.943-11.336-6.307l-1.133,0.336V10.013"/>
		<path fill="#8A5F3C" d="M41.427,10.143c0,0,5.433-13.844,15.668-5.2c10.229,8.645,3.956,13.97,0.4,13.889
			c-3.553-0.081-3.905-5.862-4.452-7.819C52.498,9.057,49.931,4.171,41.427,10.143z"/>
	</g>
	<g>
		<path fill="#522C10" d="M28.214,10.013c0,0-4.808-11.179-12.158-8.403C8.704,4.387,4.9,11.378,6.186,14.977
			s6.888,7.093,9.561,1.798c2.672-5.295,1.493-11.943,11.336-6.305l1.131,0.335V10.013"/>
		<path fill="#8A5F3C" d="M27.778,10.143c0,0-5.435-13.844-15.666-5.2c-10.232,8.645-3.957,13.97-0.403,13.889
			c3.554-0.081,3.906-5.862,4.452-7.819C16.708,9.057,19.273,4.171,27.778,10.143z"/>
	</g>
	<path fill="#FCCEA4" d="M35.261,8.685c0,0,8.386-0.233,9.769,3.615c0,0,0.723,0.419,0.765,1.434
		c0.043,1.015,1.074,7.871,1.533,9.403c0.457,1.533,1.525,5.449,3.124,8.792s1.389,7.075,0.927,9.056
		c-0.462,1.982-2.693,7.309-10.984,8.594c-8.291,1.281-11.657,0.465-12.961-0.35c-1.306-0.818-5.851-2.762-6.86-4.746
		c-1.01-1.98-2.003-5.145-2.035-5.838c-0.032-0.693-0.361-3.722,0.755-5.919c1.115-2.198,2.962-6.489,2.985-7.133
		c0.024-0.642,1.325-5.83,1.345-6.762c0.021-0.934,0.699-5.093,0.83-5.708c0.131-0.615,1.423-3.272,4.958-4.011
		C32.944,8.374,35.261,8.685,35.261,8.685z"/>
	<g>
		<path fill="#522C10" d="M50.283,31.153c-2.841-5.018-3.892-14.424-4.082-16.077c-0.189-1.654-0.422-2.931-1.452-3.837
			c0,0-2.713-3.525-9.594-3.289c-0.015,0-0.027,0.003-0.042,0.003c-0.014,0-0.027-0.002-0.041-0.003
			c-6.882-0.236-9.724,3.289-9.724,3.289c-1.031,0.906-1.263,2.183-1.452,3.837c-0.189,1.653-1.242,11.059-4.082,16.077
			S15.263,50.79,34.955,51.304h0.277C55.412,50.79,53.125,36.171,50.283,31.153z M35.046,49.878H34.78
			c-18.789-0.498-17.083-14.244-14.373-19.12c2.711-4.876,3.715-14.016,3.896-15.621c0.181-1.606,0.402-2.85,1.386-3.73
			c0,0,2.65-2.523,9.215-2.294c0.014,0.001,0.025,0.002,0.04,0.002c0.014,0,0.026-0.001,0.04-0.002
			c6.567-0.229,9.216,2.294,9.216,2.294c0.984,0.88,1.204,2.124,1.386,3.73c0.18,1.605,1.187,10.745,3.896,15.621
			C52.193,35.634,54.301,49.38,35.046,49.878z"/>
	</g>
	<path fill="#522C10" d="M20.91,32.299c0,0,0.653-0.326,1.188,0.433c0.537,0.757-0.177,1.64-0.177,1.64s0.949-0.927,0.413-1.865
		C21.796,31.572,20.91,32.299,20.91,32.299z"/>
	<path fill="#522C10" d="M48.749,32.299c0,0-0.652-0.326-1.187,0.433c-0.538,0.757,0.179,1.642,0.179,1.642s-0.949-0.93-0.414-1.865
		C47.862,31.57,48.749,32.299,48.749,32.299z"/>
	<g>
		<g>
			<path fill="#522C10" d="M30.899,12.91l0.277,1.858c0,0-2.053-0.166-3.468,1.943C27.708,16.711,28.041,13.159,30.899,12.91z"/>
		</g>
		<g>
			<path fill="#522C10" d="M39.805,12.637l-0.277,1.679c0,0,1.731-0.154,2.802,1.179C42.329,15.496,42.343,13.333,39.805,12.637z"/>
		</g>
		
			<ellipse transform="matrix(0.995 0.0999 -0.0999 0.995 2.4631 -3.809)" fill="#FFFFFF" cx="39.269" cy="22.692" rx="3.4" ry="4.94"/>
		<g>
			
				<ellipse transform="matrix(0.995 -0.0999 0.0999 0.995 -2.1122 3.2015)" fill="#FFFFFF" cx="30.912" cy="22.692" rx="3.4" ry="4.938"/>
		</g>
		<g>
			<ellipse fill="#00A08F" cx="32.836" cy="23.792" rx="0.945" ry="1.302"/>
			<ellipse fill="#FFFFFF" cx="32.64" cy="23.275" rx="0.375" ry="0.517"/>
		</g>
		<g>
			<ellipse fill="#00A08F" cx="37.673" cy="23.93" rx="0.944" ry="1.302"/>
			<ellipse fill="#FFFFFF" cx="37.477" cy="23.414" rx="0.375" ry="0.517"/>
		</g>
	</g>
	<path fill="#522C10" d="M33.272,28.061c0,0-1.838-1.998-6.286-0.554C26.986,27.507,30.943,27.122,33.272,28.061z"/>
	<path fill="#522C10" d="M36.384,28.157c0,0,1.838-1.999,6.286-0.556C42.67,27.602,38.714,27.218,36.384,28.157z"/>
	<g>
		<g>
			<g>
				<path fill="#CCCBCB" stroke="#5E5E5E" stroke-width="0.622" stroke-miterlimit="10" d="M8.283,46.702
					c0,0-4.17-2.361-6.718-2.861l2.983-2.85l2.685,3.201L8.283,46.702z"/>
				<linearGradient id="SVGID_1_" gradientUnits="userSpaceOnUse" x1="15.1563" y1="37.8828" x2="17.1027" y2="43.4929">
					<stop  offset="0" style="stop-color:#FFFFFF"/>
					<stop  offset="1" style="stop-color:#ECECEC"/>
				</linearGradient>
				<path fill="url(#SVGID_1_)" stroke="#5E5E5E" stroke-width="0.622" stroke-miterlimit="10" d="M26.847,40.411
					c0,0-9.842,4.008-14.276,6.67c-4.436,2.666-8.867-5.607-7.885-7.518c0.904-1.758,18.152-5.339,21.19-4.437L26.847,40.411z"/>
				<g>
					
						<ellipse transform="matrix(-0.8438 0.5366 -0.5366 -0.8438 38.9285 74.4827)" fill="#CCCBCB" cx="8.625" cy="42.906" rx="1.52" ry="4.389"/>
					<g>
						<path fill="#5E5E5E" d="M7.317,43.739c0,0-0.169-0.256-0.43-0.73c-0.246-0.479-0.631-1.152-0.898-2.051
							c-0.114-0.447-0.269-0.961-0.069-1.545c0.062-0.143,0.155-0.283,0.329-0.373c0.089-0.064,0.346-0.105,0.482-0.08
							c0.322,0.035,0.596,0.176,0.855,0.33c1.019,0.652,1.831,1.633,2.531,2.668c0.682,1.047,1.285,2.172,1.481,3.406
							c0.033,0.311,0.051,0.633-0.062,0.98c-0.061,0.168-0.155,0.357-0.334,0.484c-0.038,0.025-0.003,0.014-0.1,0.066l-0.047,0.02
							l-0.093,0.037c-0.102,0.023-0.238,0.051-0.324,0.041c-0.7-0.08-1.092-0.457-1.448-0.773c-0.693-0.662-1.105-1.324-1.422-1.762
							C7.467,44.009,7.317,43.739,7.317,43.739z M7.37,43.706c0,0,0.17,0.256,0.502,0.676c0.324,0.422,0.863,0.988,1.589,1.508
							c0.355,0.236,0.81,0.52,1.18,0.514c0.046-0.002,0.042-0.014,0.071-0.006l0.09-0.045l0.045-0.023
							c-0.069,0.035-0.011,0-0.022,0.004c0.047-0.029,0.083-0.1,0.113-0.188c0.059-0.184,0.053-0.445,0.018-0.701
							c-0.058-0.523-0.243-1.076-0.456-1.621c-0.222-0.549-0.488-1.074-0.803-1.6c-0.63-1.018-1.394-2-2.304-2.629
							c-0.226-0.148-0.469-0.275-0.7-0.309c-0.136-0.006-0.168-0.031-0.316,0.039c-0.071,0.031-0.153,0.111-0.199,0.207
							c-0.187,0.418-0.105,0.951-0.019,1.383c0.2,0.889,0.523,1.598,0.783,2.064C7.2,43.448,7.37,43.706,7.37,43.706z"/>
					</g>
				</g>
			</g>
			<g>
				<path fill="#5E5E5E" d="M15.573,45.226c-0.029-0.412-0.124-0.816-0.24-1.213c-0.049-0.201-0.145-0.387-0.214-0.58
					c-0.068-0.193-0.166-0.377-0.26-0.559c-0.178-0.371-0.421-0.705-0.648-1.045c-0.236-0.334-0.521-0.631-0.775-0.945L13.288,40.7
					l0.22-0.09c0.687-0.281,1.369-0.57,2.066-0.826l1.053-0.369c0.355-0.117,0.76-0.209,1.141-0.301l0.22-0.055l0.093,0.262
					c0.516,1.453,0.934,2.941,1.367,4.424l0.039,0.133l-0.113,0.049c-1.25,0.535-2.505,1.061-3.723,1.66l-0.005,0.004l-0.001-0.006
					L15.573,45.226z M15.573,45.226l0.078,0.357l-0.005-0.002c1.222-0.594,2.408-1.26,3.597-1.92l-0.074,0.182
					c-0.581-1.432-1.175-2.857-1.673-4.318l0.313,0.207c-0.334,0.096-0.655,0.15-1.004,0.258l-1.056,0.316l-2.123,0.629l0.072-0.273
					c0.233,0.352,0.491,0.684,0.698,1.049c0.198,0.369,0.408,0.73,0.551,1.123c0.178,0.375,0.297,0.775,0.411,1.174
					C15.466,44.405,15.552,44.813,15.573,45.226z"/>
			</g>
			<path fill="#5E5E5E" d="M13.385,46.612c0,0-1.707-5.494-4.199-7.666l1.362-0.396l3.643,7.623L13.385,46.612z"/>
		</g>
		<g>
			<g>
				<linearGradient id="SVGID_2_" gradientUnits="userSpaceOnUse" x1="53.4092" y1="37.6572" x2="51.9206" y2="42.2374">
					<stop  offset="0" style="stop-color:#FFFFFF"/>
					<stop  offset="1" style="stop-color:#ECECEC"/>
				</linearGradient>
				<path fill="url(#SVGID_2_)" stroke="#5E5E5E" stroke-width="0.622" stroke-miterlimit="10" d="M42.914,39.915
					c0,0,8.851,3.605,12.837,5.998c3.986,2.395,7.973-5.045,7.088-6.764c-0.812-1.576-16.319-4.798-19.051-3.985L42.914,39.915z"/>
			</g>
			<g>
				<path fill="#5E5E5E" d="M54.27,36.226c0.017,0.834-0.214,1.66-0.517,2.443c-0.334,0.775-0.774,1.506-1.299,2.172l-0.105-0.398
					l2.1,0.695l1.052,0.326l0.523,0.146c0.183,0.059,0.328,0.07,0.481,0.109l-0.312,0.205c0.585-1.561,1.135-3.135,1.748-4.688
					l0.155,0.303c-1.255-0.408-2.507-0.83-3.742-1.309h0.002L54.27,36.226z M54.27,36.226l0.087-0.01h0.002
					c1.301,0.252,2.586,0.557,3.867,0.877l0.232,0.057l-0.078,0.244c-0.503,1.592-1.071,3.158-1.604,4.738l-0.081,0.242l-0.23-0.037
					c-0.209-0.033-0.43-0.08-0.6-0.135l-0.541-0.166l-1.057-0.357c-0.7-0.248-1.399-0.49-2.089-0.764l-0.345-0.139l0.238-0.262
					c0.545-0.596,1.017-1.26,1.393-1.98C53.845,37.817,54.14,37.044,54.27,36.226z"/>
			</g>
			<path fill="#5E5E5E" d="M57.732,44.46c0,0,2.68-4.027,2.73-6.918l1.017,0.768l-3.008,6.5L57.732,44.46z"/>
		</g>
	</g>
	<path fill="#522C10" d="M20.932,32.952c0,0-4.084,11.965,12.56,13.252c16.646,1.289,15.372-13.252,15.372-13.252
		s3.584,14.711-15.193,14.432C14.894,47.104,20.932,32.952,20.932,32.952z"/>
	<path fill="#FCCEA4" d="M20.994,33.201c0,0-4.421,13.292,14.712,13.435c0,0,13.394,1.109,13.22-13.435H20.994z"/>
	<path fill="#522C10" d="M43.161,33.1c0,0-7.434-3.619-16.608-0.042c0,0,1.094,6.185,8.207,7.912
		C34.76,40.97,40.566,40.337,43.161,33.1z"/>
	<path fill="#522C10" d="M35.46,45.659c0,0,0.153-2.24-0.177-2.684c-0.328-0.439-0.896-0.473-0.896-0.473s0.952,1.832,1.107,3.283"
		/>
</g>
</svg>
