<?xml version="1.0" encoding="utf-8"?>
<!-- Generator: Adobe Illustrator 16.0.3, SVG Export Plug-In . SVG Version: 6.00 Build 0)  -->
<!DOCTYPE svg PUBLIC "-//W3C//DTD SVG 1.1//EN" "http://www.w3.org/Graphics/SVG/1.1/DTD/svg11.dtd">
<svg version="1.1" id="Layer_1" xmlns="http://www.w3.org/2000/svg" xmlns:xlink="http://www.w3.org/1999/xlink" x="0px" y="0px"
	 width="59px" height="62px" viewBox="0 0 59 62" enable-background="new 0 0 59 62" xml:space="preserve">
<g>
	<path fill="#FFFFFF" d="M27.235,35.417H2c-0.827,0-1.5-0.673-1.5-1.5V2c0-0.827,0.673-1.5,1.5-1.5h55c0.827,0,1.5,0.673,1.5,1.5
		v31.917c0,0.827-0.673,1.5-1.5,1.5H31.777l-2.25,2.777L27.235,35.417z"/>
	<path fill="#CCCCCC" d="M57,1c0.552,0,1,0.449,1,1v31.917c0,0.552-0.448,1-1,1H31.539l-2.015,2.487l-2.053-2.487H2
		c-0.551,0-1-0.448-1-1V2c0-0.551,0.449-1,1-1H57 M57,0H2C0.896,0,0,0.896,0,2v31.917c0,1.104,0.896,2,2,2h25l2.532,3.067
		l2.484-3.067H57c1.104,0,2-0.896,2-2V2C59,0.896,58.104,0,57,0L57,0z"/>
</g>
<g>
	<linearGradient id="SVGID_1_" gradientUnits="userSpaceOnUse" x1="29.5005" y1="59.25" x2="29.5005" y2="46.4127">
		<stop  offset="0.0054" style="stop-color:#CCCCCC"/>
		<stop  offset="1" style="stop-color:#FFFFFF"/>
	</linearGradient>
	<path fill="url(#SVGID_1_)" d="M2,61.5c-0.827,0-1.5-0.673-1.5-1.5V44.042c0-0.827,0.673-1.5,1.5-1.5h55c0.827,0,1.5,0.673,1.5,1.5
		V60c0,0.827-0.673,1.5-1.5,1.5H2z"/>
	<path fill="#CCCCCC" d="M57,43.042c0.552,0,1,0.448,1,1V60c0,0.552-0.448,1-1,1H2c-0.551,0-1-0.448-1-1V44.042c0-0.552,0.449-1,1-1
		H57 M57,42.042H2c-1.104,0-2,0.896-2,2V60c0,1.104,0.896,2,2,2h55c1.104,0,2-0.896,2-2V44.042C59,42.938,58.104,42.042,57,42.042
		L57,42.042z"/>
</g>
<g>
	<path fill="#3274D1" d="M27.144,54.659c0.492,0.252,1.247,0.504,2.027,0.504c0.839,0,1.283-0.348,1.283-0.876
		c0-0.504-0.384-0.791-1.355-1.14c-1.343-0.468-2.219-1.211-2.219-2.387c0-1.379,1.151-2.435,3.058-2.435
		c0.912,0,1.583,0.192,2.063,0.408l-0.408,1.476c-0.324-0.156-0.9-0.385-1.691-0.385s-1.175,0.36-1.175,0.78
		c0,0.516,0.456,0.743,1.499,1.14c1.427,0.527,2.099,1.271,2.099,2.41c0,1.355-1.043,2.507-3.262,2.507
		c-0.923,0-1.835-0.24-2.291-0.492L27.144,54.659z"/>
	<path fill="#3274D1" d="M36.832,56.542l-0.108-0.588h-0.036c-0.384,0.468-0.983,0.72-1.679,0.72c-1.188,0-1.895-0.863-1.895-1.799
		c0-1.523,1.367-2.255,3.442-2.243v-0.084c0-0.312-0.168-0.755-1.067-0.755c-0.6,0-1.235,0.203-1.619,0.443l-0.336-1.176
		c0.408-0.228,1.211-0.516,2.279-0.516c1.955,0,2.579,1.151,2.579,2.531v2.039c0,0.563,0.024,1.103,0.084,1.427H36.832z
		 M36.616,53.771c-0.959-0.012-1.703,0.216-1.703,0.924c0,0.468,0.312,0.695,0.719,0.695c0.456,0,0.828-0.3,0.948-0.672
		c0.024-0.096,0.036-0.204,0.036-0.312V53.771z"/>
	<path fill="#3274D1" d="M40.958,50.677l0.792,2.723c0.144,0.492,0.252,0.96,0.336,1.428h0.036c0.096-0.479,0.192-0.924,0.324-1.428
		l0.755-2.723h1.919l-2.183,5.865h-1.823l-2.135-5.865H40.958z"/>
	<path fill="#3274D1" d="M47.136,54.191c0.06,0.756,0.804,1.115,1.655,1.115c0.623,0,1.127-0.084,1.619-0.24l0.24,1.235
		c-0.6,0.24-1.332,0.36-2.123,0.36c-1.991,0-3.13-1.151-3.13-2.986c0-1.487,0.923-3.131,2.962-3.131
		c1.895,0,2.614,1.476,2.614,2.927c0,0.312-0.036,0.588-0.06,0.72H47.136z M49.283,52.944c0-0.444-0.192-1.188-1.032-1.188
		c-0.768,0-1.079,0.695-1.127,1.188H49.283z"/>
</g>
<g>
	<path fill="#CCCCCC" d="M38.5,9v18h-18V9H38.5 M39.5,8h-20v20h20V8L39.5,8z"/>
	<g>
		<rect x="21.5" y="10" fill="#FFFFFF" width="8" height="8"/>
		<rect x="21.5" y="18" width="8" height="8"/>
		<rect x="29.5" y="10" fill="#3274D1" width="8" height="8"/>
		<rect x="29.5" y="18" fill="#CCCCCC" width="8" height="8"/>
	</g>
</g>
<path fill="#3274D1" d="M21.086,48.387c-0.265-0.6-0.71-1.062-1.234-1.363c-0.524-0.305-1.126-0.455-1.736-0.455
	c-0.732,0-1.483,0.218-2.125,0.677c-0.343,0.243-0.65,0.56-0.904,0.938c-0.266-0.372-0.584-0.68-0.938-0.919
	c-0.666-0.447-1.438-0.661-2.192-0.662c-0.826,0.001-1.642,0.257-2.273,0.788c-0.314,0.266-0.579,0.602-0.762,0.998
	c-0.183,0.395-0.283,0.85-0.283,1.343c0,0.486,0.109,0.964,0.286,1.427c0.312,0.812,0.831,1.585,1.428,2.304
	c0.895,1.08,1.972,2.039,2.828,2.736c0.856,0.696,1.492,1.128,1.501,1.135c0.192,0.131,0.442,0.131,0.633,0
	c0.015-0.01,1.483-1.006,2.971-2.426c0.745-0.711,1.495-1.526,2.074-2.398c0.288-0.436,0.535-0.886,0.713-1.351
	c0.177-0.463,0.286-0.94,0.287-1.427C21.36,49.238,21.264,48.783,21.086,48.387z"/>
</svg>
