<?xml version="1.0" encoding="utf-8"?>
<!-- Generator: Adobe Illustrator 16.0.3, SVG Export Plug-In . SVG Version: 6.00 Build 0)  -->
<!DOCTYPE svg PUBLIC "-//W3C//DTD SVG 1.1//EN" "http://www.w3.org/Graphics/SVG/1.1/DTD/svg11.dtd">
<svg version="1.1" id="Layer_1" xmlns="http://www.w3.org/2000/svg" xmlns:xlink="http://www.w3.org/1999/xlink" x="0px" y="0px"
	 width="96px" height="26px" viewBox="0 0 96 26" enable-background="new 0 0 96 26" xml:space="preserve">
<g id="Layer_1_1_">
	<path fill="#3274D1" d="M96,23c0,1.656-1.346,3-3.005,3H3.005C1.346,26,0,24.656,0,23V3c0-1.657,1.346-3,3.005-3h89.99
		C94.654,0,96,1.343,96,3V23z"/>
</g>
<g id="Print">
	<g>
		<path fill="#FFFFFF" d="M32.003,7.999h3.53c2.045,0,2.745,1.499,2.745,2.998c0,2.073-1.274,3.012-3.18,3.012h-1.079v3.992h-2.017
			L32.003,7.999L32.003,7.999z M34.021,12.523h0.896c0.799,0,1.345-0.476,1.345-1.498c0-0.98-0.392-1.541-1.4-1.541h-0.841V12.523z"
			/>
		<path fill="#FFFFFF" d="M39.129,7.999h3.726c1.653,0,2.662,0.869,2.662,2.578c0,1.33-0.532,2.228-1.667,2.466v0.027
			c1.373,0.182,1.583,0.938,1.611,3.054c0.014,1.05,0.07,1.597,0.448,1.793v0.084h-2.185c-0.196-0.28-0.238-0.658-0.252-1.051
			l-0.056-1.919c-0.028-0.784-0.378-1.262-1.191-1.262h-1.079V18h-2.017V7.999z M41.146,12.37h0.841
			c0.966,0,1.513-0.421,1.513-1.499c0-0.925-0.49-1.387-1.401-1.387h-0.953V12.37z"/>
		<path fill="#FFFFFF" d="M46.872,18.001V7.999h2.017v10.002H46.872z"/>
		<path fill="#FFFFFF" d="M52.57,7.999l2.438,6.851h0.029V7.999h1.848v10.002h-2.297l-2.465-7.004h-0.027v7.004h-1.85V7.999H52.57z"
			/>
		<path fill="#FFFFFF" d="M63.996,7.999v1.653h-2.186v8.349h-2.017V9.652h-2.187V7.999H63.996z"/>
	</g>
</g>
</svg>
